solid Cheetah3Dfile
 facet normal 0.7269 0.3038 0.6159
   outer loop
     vertex 0.6602 0.1609 0.6468
     vertex 0.7577 0.2894 0.4683
     vertex 0.6492 0.4420 0.5212
   endloop
 endfacet
 facet normal 0.7086 0.3109 0.6334
   outer loop
     vertex 0.6492 0.4420 0.5212
     vertex 0.5509 0.3413 0.6805
     vertex 0.6602 0.1609 0.6468
   endloop
 endfacet
 facet normal 0.3038 0.6159 0.7269
   outer loop
     vertex 0.1609 0.6468 0.6602
     vertex 0.2894 0.4683 0.7577
     vertex 0.4420 0.5212 0.6492
   endloop
 endfacet
 facet normal 0.3109 0.6334 0.7086
   outer loop
     vertex 0.4420 0.5212 0.6492
     vertex 0.3413 0.6805 0.5509
     vertex 0.1609 0.6468 0.6602
   endloop
 endfacet
 facet normal 0.6159 0.7269 0.3038
   outer loop
     vertex 0.6468 0.6602 0.1609
     vertex 0.4683 0.7577 0.2894
     vertex 0.5212 0.6492 0.4420
   endloop
 endfacet
 facet normal 0.6334 0.7086 0.3109
   outer loop
     vertex 0.5212 0.6492 0.4420
     vertex 0.6805 0.5509 0.3413
     vertex 0.6468 0.6602 0.1609
   endloop
 endfacet
 facet normal 0.8021 -0.4256 0.4189
   outer loop
     vertex 0.8078 -0.3998 0.2604
     vertex 0.7577 -0.2894 0.4683
     vertex 0.6492 -0.4420 0.5212
   endloop
 endfacet
 facet normal 0.7939 -0.4489 0.4101
   outer loop
     vertex 0.6492 -0.4420 0.5212
     vertex 0.6805 -0.5509 0.3413
     vertex 0.8078 -0.3998 0.2604
   endloop
 endfacet
 facet normal 0.4189 -0.8021 0.4256
   outer loop
     vertex 0.2604 -0.8078 0.3998
     vertex 0.4683 -0.7577 0.2894
     vertex 0.5212 -0.6492 0.4420
   endloop
 endfacet
 facet normal 0.4101 -0.7939 0.4489
   outer loop
     vertex 0.5212 -0.6492 0.4420
     vertex 0.3413 -0.6805 0.5509
     vertex 0.2604 -0.8078 0.3998
   endloop
 endfacet
 facet normal 0.4256 -0.4189 0.8021
   outer loop
     vertex 0.3998 -0.2604 0.8078
     vertex 0.2894 -0.4683 0.7577
     vertex 0.4420 -0.5212 0.6492
   endloop
 endfacet
 facet normal 0.4489 -0.4101 0.7939
   outer loop
     vertex 0.4420 -0.5212 0.6492
     vertex 0.5509 -0.3413 0.6805
     vertex 0.3998 -0.2604 0.8078
   endloop
 endfacet
 facet normal -0.7269 -0.3038 0.6159
   outer loop
     vertex -0.6602 -0.1609 0.6468
     vertex -0.7577 -0.2894 0.4683
     vertex -0.6492 -0.4420 0.5212
   endloop
 endfacet
 facet normal -0.7086 -0.3109 0.6334
   outer loop
     vertex -0.6492 -0.4420 0.5212
     vertex -0.5509 -0.3413 0.6805
     vertex -0.6602 -0.1609 0.6468
   endloop
 endfacet
 facet normal -0.3038 -0.6159 0.7269
   outer loop
     vertex -0.1609 -0.6468 0.6602
     vertex -0.2894 -0.4683 0.7577
     vertex -0.4420 -0.5212 0.6492
   endloop
 endfacet
 facet normal -0.3109 -0.6334 0.7086
   outer loop
     vertex -0.4420 -0.5212 0.6492
     vertex -0.3413 -0.6805 0.5509
     vertex -0.1609 -0.6468 0.6602
   endloop
 endfacet
 facet normal -0.6159 -0.7269 0.3038
   outer loop
     vertex -0.6468 -0.6602 0.1609
     vertex -0.4683 -0.7577 0.2894
     vertex -0.5212 -0.6492 0.4420
   endloop
 endfacet
 facet normal -0.6334 -0.7086 0.3109
   outer loop
     vertex -0.5212 -0.6492 0.4420
     vertex -0.6805 -0.5509 0.3413
     vertex -0.6468 -0.6602 0.1609
   endloop
 endfacet
 facet normal -0.8021 0.4256 0.4189
   outer loop
     vertex -0.8078 0.3998 0.2604
     vertex -0.7577 0.2894 0.4683
     vertex -0.6492 0.4420 0.5212
   endloop
 endfacet
 facet normal -0.7939 0.4489 0.4101
   outer loop
     vertex -0.6492 0.4420 0.5212
     vertex -0.6805 0.5509 0.3413
     vertex -0.8078 0.3998 0.2604
   endloop
 endfacet
 facet normal -0.4189 0.8021 0.4256
   outer loop
     vertex -0.2604 0.8078 0.3998
     vertex -0.4683 0.7577 0.2894
     vertex -0.5212 0.6492 0.4420
   endloop
 endfacet
 facet normal -0.4101 0.7939 0.4489
   outer loop
     vertex -0.5212 0.6492 0.4420
     vertex -0.3413 0.6805 0.5509
     vertex -0.2604 0.8078 0.3998
   endloop
 endfacet
 facet normal -0.4256 0.4189 0.8021
   outer loop
     vertex -0.3998 0.2604 0.8078
     vertex -0.2894 0.4683 0.7577
     vertex -0.4420 0.5212 0.6492
   endloop
 endfacet
 facet normal -0.4489 0.4101 0.7939
   outer loop
     vertex -0.4420 0.5212 0.6492
     vertex -0.5509 0.3413 0.6805
     vertex -0.3998 0.2604 0.8078
   endloop
 endfacet
 facet normal -0.8021 -0.4256 -0.4189
   outer loop
     vertex -0.8078 -0.3998 -0.2604
     vertex -0.7577 -0.2894 -0.4683
     vertex -0.6492 -0.4420 -0.5212
   endloop
 endfacet
 facet normal -0.7939 -0.4489 -0.4101
   outer loop
     vertex -0.6492 -0.4420 -0.5212
     vertex -0.6805 -0.5509 -0.3413
     vertex -0.8078 -0.3998 -0.2604
   endloop
 endfacet
 facet normal -0.4189 -0.8021 -0.4256
   outer loop
     vertex -0.2604 -0.8078 -0.3998
     vertex -0.4683 -0.7577 -0.2894
     vertex -0.5212 -0.6492 -0.4420
   endloop
 endfacet
 facet normal -0.4101 -0.7939 -0.4489
   outer loop
     vertex -0.5212 -0.6492 -0.4420
     vertex -0.3413 -0.6805 -0.5509
     vertex -0.2604 -0.8078 -0.3998
   endloop
 endfacet
 facet normal -0.4256 -0.4189 -0.8021
   outer loop
     vertex -0.3998 -0.2604 -0.8078
     vertex -0.2894 -0.4683 -0.7577
     vertex -0.4420 -0.5212 -0.6492
   endloop
 endfacet
 facet normal -0.4489 -0.4101 -0.7939
   outer loop
     vertex -0.4420 -0.5212 -0.6492
     vertex -0.5509 -0.3413 -0.6805
     vertex -0.3998 -0.2604 -0.8078
   endloop
 endfacet
 facet normal -0.3038 0.6159 -0.7269
   outer loop
     vertex -0.1609 0.6468 -0.6602
     vertex -0.2894 0.4683 -0.7577
     vertex -0.4420 0.5212 -0.6492
   endloop
 endfacet
 facet normal -0.3109 0.6334 -0.7086
   outer loop
     vertex -0.4420 0.5212 -0.6492
     vertex -0.3413 0.6805 -0.5509
     vertex -0.1609 0.6468 -0.6602
   endloop
 endfacet
 facet normal -0.6159 0.7269 -0.3038
   outer loop
     vertex -0.6468 0.6602 -0.1609
     vertex -0.4683 0.7577 -0.2894
     vertex -0.5212 0.6492 -0.4420
   endloop
 endfacet
 facet normal -0.6334 0.7086 -0.3109
   outer loop
     vertex -0.5212 0.6492 -0.4420
     vertex -0.6805 0.5509 -0.3413
     vertex -0.6468 0.6602 -0.1609
   endloop
 endfacet
 facet normal -0.7269 0.3038 -0.6159
   outer loop
     vertex -0.6602 0.1609 -0.6468
     vertex -0.7577 0.2894 -0.4683
     vertex -0.6492 0.4420 -0.5212
   endloop
 endfacet
 facet normal -0.7086 0.3109 -0.6334
   outer loop
     vertex -0.6492 0.4420 -0.5212
     vertex -0.5509 0.3413 -0.6805
     vertex -0.6602 0.1609 -0.6468
   endloop
 endfacet
 facet normal 0.4189 0.8021 -0.4256
   outer loop
     vertex 0.2604 0.8078 -0.3998
     vertex 0.4683 0.7577 -0.2894
     vertex 0.5212 0.6492 -0.4420
   endloop
 endfacet
 facet normal 0.4101 0.7939 -0.4489
   outer loop
     vertex 0.5212 0.6492 -0.4420
     vertex 0.3413 0.6805 -0.5509
     vertex 0.2604 0.8078 -0.3998
   endloop
 endfacet
 facet normal 0.4256 0.4189 -0.8021
   outer loop
     vertex 0.3998 0.2604 -0.8078
     vertex 0.2894 0.4683 -0.7577
     vertex 0.4420 0.5212 -0.6492
   endloop
 endfacet
 facet normal 0.4489 0.4101 -0.7939
   outer loop
     vertex 0.4420 0.5212 -0.6492
     vertex 0.5509 0.3413 -0.6805
     vertex 0.3998 0.2604 -0.8078
   endloop
 endfacet
 facet normal 0.8021 0.4256 -0.4189
   outer loop
     vertex 0.8078 0.3998 -0.2604
     vertex 0.7577 0.2894 -0.4683
     vertex 0.6492 0.4420 -0.5212
   endloop
 endfacet
 facet normal 0.7939 0.4489 -0.4101
   outer loop
     vertex 0.6492 0.4420 -0.5212
     vertex 0.6805 0.5509 -0.3413
     vertex 0.8078 0.3998 -0.2604
   endloop
 endfacet
 facet normal 0.6159 -0.7269 -0.3038
   outer loop
     vertex 0.6468 -0.6602 -0.1609
     vertex 0.4683 -0.7577 -0.2894
     vertex 0.5212 -0.6492 -0.4420
   endloop
 endfacet
 facet normal 0.6334 -0.7086 -0.3109
   outer loop
     vertex 0.5212 -0.6492 -0.4420
     vertex 0.6805 -0.5509 -0.3413
     vertex 0.6468 -0.6602 -0.1609
   endloop
 endfacet
 facet normal 0.7269 -0.3038 -0.6159
   outer loop
     vertex 0.6602 -0.1609 -0.6468
     vertex 0.7577 -0.2894 -0.4683
     vertex 0.6492 -0.4420 -0.5212
   endloop
 endfacet
 facet normal 0.7086 -0.3109 -0.6334
   outer loop
     vertex 0.6492 -0.4420 -0.5212
     vertex 0.5509 -0.3413 -0.6805
     vertex 0.6602 -0.1609 -0.6468
   endloop
 endfacet
 facet normal 0.3038 -0.6159 -0.7269
   outer loop
     vertex 0.1609 -0.6468 -0.6602
     vertex 0.2894 -0.4683 -0.7577
     vertex 0.4420 -0.5212 -0.6492
   endloop
 endfacet
 facet normal 0.3109 -0.6334 -0.7086
   outer loop
     vertex 0.4420 -0.5212 -0.6492
     vertex 0.3413 -0.6805 -0.5509
     vertex 0.1609 -0.6468 -0.6602
   endloop
 endfacet
 facet normal 0.7995 -0.1862 0.5710
   outer loop
     vertex 0.6602 -0.1609 0.6468
     vertex 0.7577 -0.2894 0.4683
     vertex 0.8433 -0.1280 0.4012
   endloop
 endfacet
 facet normal 0.8016 -0.1605 0.5760
   outer loop
     vertex 0.8433 -0.1280 0.4012
     vertex 0.7619 -0.0000 0.5501
     vertex 0.6602 -0.1609 0.6468
   endloop
 endfacet
 facet normal 0.8748 0.3080 0.3740
   outer loop
     vertex 0.8078 0.3998 0.2604
     vertex 0.7577 0.2894 0.4683
     vertex 0.8433 0.1280 0.4012
   endloop
 endfacet
 facet normal 0.8869 0.2985 0.3526
   outer loop
     vertex 0.8433 0.1280 0.4012
     vertex 0.8914 0.2096 0.2109
     vertex 0.8078 0.3998 0.2604
   endloop
 endfacet
 facet normal 0.9899 -0.1218 0.0727
   outer loop
     vertex 0.9072 -0.2388 -0.0000
     vertex 0.9366 -0.0000 0.0000
     vertex 0.9224 -0.0000 0.1941
   endloop
 endfacet
 facet normal 0.9861 -0.1380 0.0929
   outer loop
     vertex 0.9224 -0.0000 0.1941
     vertex 0.8914 -0.2096 0.2109
     vertex 0.9072 -0.2388 -0.0000
   endloop
 endfacet
 facet normal 0.7995 0.1862 -0.5710
   outer loop
     vertex 0.6602 0.1609 -0.6468
     vertex 0.7577 0.2894 -0.4683
     vertex 0.8433 0.1280 -0.4012
   endloop
 endfacet
 facet normal 0.8016 0.1605 -0.5760
   outer loop
     vertex 0.8433 0.1280 -0.4012
     vertex 0.7619 -0.0000 -0.5501
     vertex 0.6602 0.1609 -0.6468
   endloop
 endfacet
 facet normal 0.8748 -0.3080 -0.3740
   outer loop
     vertex 0.8078 -0.3998 -0.2604
     vertex 0.7577 -0.2894 -0.4683
     vertex 0.8433 -0.1280 -0.4012
   endloop
 endfacet
 facet normal 0.8869 -0.2985 -0.3526
   outer loop
     vertex 0.8433 -0.1280 -0.4012
     vertex 0.8914 -0.2096 -0.2109
     vertex 0.8078 -0.3998 -0.2604
   endloop
 endfacet
 facet normal 0.9899 0.1218 -0.0727
   outer loop
     vertex 0.9072 0.2388 0.0000
     vertex 0.9366 -0.0000 0.0000
     vertex 0.9224 -0.0000 -0.1941
   endloop
 endfacet
 facet normal 0.9861 0.1380 -0.0929
   outer loop
     vertex 0.9224 -0.0000 -0.1941
     vertex 0.8914 0.2096 -0.2109
     vertex 0.9072 0.2388 0.0000
   endloop
 endfacet
 facet normal -0.7995 -0.1862 -0.5710
   outer loop
     vertex -0.6602 -0.1609 -0.6468
     vertex -0.7577 -0.2894 -0.4683
     vertex -0.8433 -0.1280 -0.4012
   endloop
 endfacet
 facet normal -0.8016 -0.1605 -0.5760
   outer loop
     vertex -0.8433 -0.1280 -0.4012
     vertex -0.7619 -0.0000 -0.5501
     vertex -0.6602 -0.1609 -0.6468
   endloop
 endfacet
 facet normal -0.8748 0.3080 -0.3740
   outer loop
     vertex -0.8078 0.3998 -0.2604
     vertex -0.7577 0.2894 -0.4683
     vertex -0.8433 0.1280 -0.4012
   endloop
 endfacet
 facet normal -0.8869 0.2985 -0.3526
   outer loop
     vertex -0.8433 0.1280 -0.4012
     vertex -0.8914 0.2096 -0.2109
     vertex -0.8078 0.3998 -0.2604
   endloop
 endfacet
 facet normal -0.9899 -0.1218 -0.0727
   outer loop
     vertex -0.9072 -0.2388 0.0000
     vertex -0.9366 -0.0000 0.0000
     vertex -0.9224 -0.0000 -0.1941
   endloop
 endfacet
 facet normal -0.9861 -0.1380 -0.0929
   outer loop
     vertex -0.9224 -0.0000 -0.1941
     vertex -0.8914 -0.2096 -0.2109
     vertex -0.9072 -0.2388 0.0000
   endloop
 endfacet
 facet normal -0.7995 0.1862 0.5710
   outer loop
     vertex -0.6602 0.1609 0.6468
     vertex -0.7577 0.2894 0.4683
     vertex -0.8433 0.1280 0.4012
   endloop
 endfacet
 facet normal -0.8016 0.1605 0.5760
   outer loop
     vertex -0.8433 0.1280 0.4012
     vertex -0.7619 -0.0000 0.5501
     vertex -0.6602 0.1609 0.6468
   endloop
 endfacet
 facet normal -0.8748 -0.3080 0.3740
   outer loop
     vertex -0.8078 -0.3998 0.2604
     vertex -0.7577 -0.2894 0.4683
     vertex -0.8433 -0.1280 0.4012
   endloop
 endfacet
 facet normal -0.8869 -0.2985 0.3526
   outer loop
     vertex -0.8433 -0.1280 0.4012
     vertex -0.8914 -0.2096 0.2109
     vertex -0.8078 -0.3998 0.2604
   endloop
 endfacet
 facet normal -0.9899 0.1218 0.0727
   outer loop
     vertex -0.9072 0.2388 0.0000
     vertex -0.9366 -0.0000 0.0000
     vertex -0.9224 -0.0000 0.1941
   endloop
 endfacet
 facet normal -0.9861 0.1380 0.0929
   outer loop
     vertex -0.9224 -0.0000 0.1941
     vertex -0.8914 0.2096 0.2109
     vertex -0.9072 0.2388 0.0000
   endloop
 endfacet
 facet normal 0.5710 0.7995 -0.1862
   outer loop
     vertex 0.6468 0.6602 -0.1609
     vertex 0.4683 0.7577 -0.2894
     vertex 0.4012 0.8433 -0.1280
   endloop
 endfacet
 facet normal 0.5760 0.8016 -0.1605
   outer loop
     vertex 0.4012 0.8433 -0.1280
     vertex 0.5501 0.7619 0.0000
     vertex 0.6468 0.6602 -0.1609
   endloop
 endfacet
 facet normal 0.3740 0.8748 0.3080
   outer loop
     vertex 0.2604 0.8078 0.3998
     vertex 0.4683 0.7577 0.2894
     vertex 0.4012 0.8433 0.1280
   endloop
 endfacet
 facet normal 0.3526 0.8869 0.2985
   outer loop
     vertex 0.4012 0.8433 0.1280
     vertex 0.2109 0.8914 0.2096
     vertex 0.2604 0.8078 0.3998
   endloop
 endfacet
 facet normal 0.0727 0.9899 -0.1218
   outer loop
     vertex -0.0000 0.9072 -0.2388
     vertex 0.0000 0.9366 0.0000
     vertex 0.1941 0.9224 0.0000
   endloop
 endfacet
 facet normal 0.0929 0.9861 -0.1380
   outer loop
     vertex 0.1941 0.9224 0.0000
     vertex 0.2109 0.8914 -0.2096
     vertex -0.0000 0.9072 -0.2388
   endloop
 endfacet
 facet normal -0.5710 0.7995 0.1862
   outer loop
     vertex -0.6468 0.6602 0.1609
     vertex -0.4683 0.7577 0.2894
     vertex -0.4012 0.8433 0.1280
   endloop
 endfacet
 facet normal -0.5760 0.8016 0.1605
   outer loop
     vertex -0.4012 0.8433 0.1280
     vertex -0.5501 0.7619 0.0000
     vertex -0.6468 0.6602 0.1609
   endloop
 endfacet
 facet normal -0.3740 0.8748 -0.3080
   outer loop
     vertex -0.2604 0.8078 -0.3998
     vertex -0.4683 0.7577 -0.2894
     vertex -0.4012 0.8433 -0.1280
   endloop
 endfacet
 facet normal -0.3526 0.8869 -0.2985
   outer loop
     vertex -0.4012 0.8433 -0.1280
     vertex -0.2109 0.8914 -0.2096
     vertex -0.2604 0.8078 -0.3998
   endloop
 endfacet
 facet normal -0.0727 0.9899 0.1218
   outer loop
     vertex 0.0000 0.9072 0.2388
     vertex 0.0000 0.9366 0.0000
     vertex -0.1941 0.9224 0.0000
   endloop
 endfacet
 facet normal -0.0929 0.9861 0.1380
   outer loop
     vertex -0.1941 0.9224 0.0000
     vertex -0.2109 0.8914 0.2096
     vertex 0.0000 0.9072 0.2388
   endloop
 endfacet
 facet normal -0.5710 -0.7995 -0.1862
   outer loop
     vertex -0.6468 -0.6602 -0.1609
     vertex -0.4683 -0.7577 -0.2894
     vertex -0.4012 -0.8433 -0.1280
   endloop
 endfacet
 facet normal -0.5760 -0.8016 -0.1605
   outer loop
     vertex -0.4012 -0.8433 -0.1280
     vertex -0.5501 -0.7619 0.0000
     vertex -0.6468 -0.6602 -0.1609
   endloop
 endfacet
 facet normal -0.3740 -0.8748 0.3080
   outer loop
     vertex -0.2604 -0.8078 0.3998
     vertex -0.4683 -0.7577 0.2894
     vertex -0.4012 -0.8433 0.1280
   endloop
 endfacet
 facet normal -0.3526 -0.8869 0.2985
   outer loop
     vertex -0.4012 -0.8433 0.1280
     vertex -0.2109 -0.8914 0.2096
     vertex -0.2604 -0.8078 0.3998
   endloop
 endfacet
 facet normal -0.0727 -0.9899 -0.1218
   outer loop
     vertex 0.0000 -0.9072 -0.2388
     vertex 0.0000 -0.9366 0.0000
     vertex -0.1941 -0.9224 0.0000
   endloop
 endfacet
 facet normal -0.0929 -0.9861 -0.1380
   outer loop
     vertex -0.1941 -0.9224 0.0000
     vertex -0.2109 -0.8914 -0.2096
     vertex 0.0000 -0.9072 -0.2388
   endloop
 endfacet
 facet normal 0.5710 -0.7995 0.1862
   outer loop
     vertex 0.6468 -0.6602 0.1609
     vertex 0.4683 -0.7577 0.2894
     vertex 0.4012 -0.8433 0.1280
   endloop
 endfacet
 facet normal 0.5760 -0.8016 0.1605
   outer loop
     vertex 0.4012 -0.8433 0.1280
     vertex 0.5501 -0.7619 0.0000
     vertex 0.6468 -0.6602 0.1609
   endloop
 endfacet
 facet normal 0.3740 -0.8748 -0.3080
   outer loop
     vertex 0.2604 -0.8078 -0.3998
     vertex 0.4683 -0.7577 -0.2894
     vertex 0.4012 -0.8433 -0.1280
   endloop
 endfacet
 facet normal 0.3526 -0.8869 -0.2985
   outer loop
     vertex 0.4012 -0.8433 -0.1280
     vertex 0.2109 -0.8914 -0.2096
     vertex 0.2604 -0.8078 -0.3998
   endloop
 endfacet
 facet normal 0.0727 -0.9899 0.1218
   outer loop
     vertex 0.0000 -0.9072 0.2388
     vertex 0.0000 -0.9366 0.0000
     vertex 0.1941 -0.9224 0.0000
   endloop
 endfacet
 facet normal 0.0929 -0.9861 0.1380
   outer loop
     vertex 0.1941 -0.9224 0.0000
     vertex 0.2109 -0.8914 0.2096
     vertex 0.0000 -0.9072 0.2388
   endloop
 endfacet
 facet normal -0.1862 0.5710 0.7995
   outer loop
     vertex -0.1609 0.6468 0.6602
     vertex -0.2894 0.4683 0.7577
     vertex -0.1280 0.4012 0.8433
   endloop
 endfacet
 facet normal -0.1605 0.5760 0.8016
   outer loop
     vertex -0.1280 0.4012 0.8433
     vertex 0.0000 0.5501 0.7619
     vertex -0.1609 0.6468 0.6602
   endloop
 endfacet
 facet normal 0.3080 0.3740 0.8748
   outer loop
     vertex 0.3998 0.2604 0.8078
     vertex 0.2894 0.4683 0.7577
     vertex 0.1280 0.4012 0.8433
   endloop
 endfacet
 facet normal 0.2985 0.3526 0.8869
   outer loop
     vertex 0.1280 0.4012 0.8433
     vertex 0.2096 0.2109 0.8914
     vertex 0.3998 0.2604 0.8078
   endloop
 endfacet
 facet normal -0.1218 0.0727 0.9899
   outer loop
     vertex -0.2388 -0.0000 0.9072
     vertex 0.0000 -0.0000 0.9366
     vertex 0.0000 0.1941 0.9224
   endloop
 endfacet
 facet normal -0.1380 0.0929 0.9861
   outer loop
     vertex 0.0000 0.1941 0.9224
     vertex -0.2096 0.2109 0.8914
     vertex -0.2388 -0.0000 0.9072
   endloop
 endfacet
 facet normal 0.1862 -0.5710 0.7995
   outer loop
     vertex 0.1609 -0.6468 0.6602
     vertex 0.2894 -0.4683 0.7577
     vertex 0.1280 -0.4012 0.8433
   endloop
 endfacet
 facet normal 0.1605 -0.5760 0.8016
   outer loop
     vertex 0.1280 -0.4012 0.8433
     vertex 0.0000 -0.5501 0.7619
     vertex 0.1609 -0.6468 0.6602
   endloop
 endfacet
 facet normal -0.3080 -0.3740 0.8748
   outer loop
     vertex -0.3998 -0.2604 0.8078
     vertex -0.2894 -0.4683 0.7577
     vertex -0.1280 -0.4012 0.8433
   endloop
 endfacet
 facet normal -0.2985 -0.3526 0.8869
   outer loop
     vertex -0.1280 -0.4012 0.8433
     vertex -0.2096 -0.2109 0.8914
     vertex -0.3998 -0.2604 0.8078
   endloop
 endfacet
 facet normal 0.1218 -0.0727 0.9899
   outer loop
     vertex 0.2388 -0.0000 0.9072
     vertex 0.0000 -0.0000 0.9366
     vertex 0.0000 -0.1941 0.9224
   endloop
 endfacet
 facet normal 0.1380 -0.0929 0.9861
   outer loop
     vertex 0.0000 -0.1941 0.9224
     vertex 0.2096 -0.2109 0.8914
     vertex 0.2388 -0.0000 0.9072
   endloop
 endfacet
 facet normal -0.1862 -0.5710 -0.7995
   outer loop
     vertex -0.1609 -0.6468 -0.6602
     vertex -0.2894 -0.4683 -0.7577
     vertex -0.1280 -0.4012 -0.8433
   endloop
 endfacet
 facet normal -0.1605 -0.5760 -0.8016
   outer loop
     vertex -0.1280 -0.4012 -0.8433
     vertex 0.0000 -0.5501 -0.7619
     vertex -0.1609 -0.6468 -0.6602
   endloop
 endfacet
 facet normal 0.3080 -0.3740 -0.8748
   outer loop
     vertex 0.3998 -0.2604 -0.8078
     vertex 0.2894 -0.4683 -0.7577
     vertex 0.1280 -0.4012 -0.8433
   endloop
 endfacet
 facet normal 0.2985 -0.3526 -0.8869
   outer loop
     vertex 0.1280 -0.4012 -0.8433
     vertex 0.2096 -0.2109 -0.8914
     vertex 0.3998 -0.2604 -0.8078
   endloop
 endfacet
 facet normal -0.1218 -0.0727 -0.9899
   outer loop
     vertex -0.2388 0.0000 -0.9072
     vertex 0.0000 -0.0000 -0.9366
     vertex 0.0000 -0.1941 -0.9224
   endloop
 endfacet
 facet normal -0.1380 -0.0929 -0.9861
   outer loop
     vertex 0.0000 -0.1941 -0.9224
     vertex -0.2096 -0.2109 -0.8914
     vertex -0.2388 0.0000 -0.9072
   endloop
 endfacet
 facet normal 0.1862 0.5710 -0.7995
   outer loop
     vertex 0.1609 0.6468 -0.6602
     vertex 0.2894 0.4683 -0.7577
     vertex 0.1280 0.4012 -0.8433
   endloop
 endfacet
 facet normal 0.1605 0.5760 -0.8016
   outer loop
     vertex 0.1280 0.4012 -0.8433
     vertex 0.0000 0.5501 -0.7619
     vertex 0.1609 0.6468 -0.6602
   endloop
 endfacet
 facet normal -0.3080 0.3740 -0.8748
   outer loop
     vertex -0.3998 0.2604 -0.8078
     vertex -0.2894 0.4683 -0.7577
     vertex -0.1280 0.4012 -0.8433
   endloop
 endfacet
 facet normal -0.2985 0.3526 -0.8869
   outer loop
     vertex -0.1280 0.4012 -0.8433
     vertex -0.2096 0.2109 -0.8914
     vertex -0.3998 0.2604 -0.8078
   endloop
 endfacet
 facet normal 0.1218 0.0727 -0.9899
   outer loop
     vertex 0.2388 -0.0000 -0.9072
     vertex 0.0000 -0.0000 -0.9366
     vertex 0.0000 0.1941 -0.9224
   endloop
 endfacet
 facet normal 0.1380 0.0929 -0.9861
   outer loop
     vertex 0.0000 0.1941 -0.9224
     vertex 0.2096 0.2109 -0.8914
     vertex 0.2388 -0.0000 -0.9072
   endloop
 endfacet
 facet normal 0.5560 0.2214 0.8012
   outer loop
     vertex 0.5509 0.3413 0.6805
     vertex 0.3998 0.2604 0.8078
     vertex 0.5005 -0.0000 0.8098
   endloop
 endfacet
 facet normal 0.5870 0.2095 0.7820
   outer loop
     vertex 0.5005 -0.0000 0.8098
     vertex 0.6602 0.1609 0.6468
     vertex 0.5509 0.3413 0.6805
   endloop
 endfacet
 facet normal 0.4256 0.4189 0.8021
   outer loop
     vertex 0.4420 0.5212 0.6492
     vertex 0.2894 0.4683 0.7577
     vertex 0.3998 0.2604 0.8078
   endloop
 endfacet
 facet normal 0.4489 0.4101 0.7939
   outer loop
     vertex 0.3998 0.2604 0.8078
     vertex 0.5509 0.3413 0.6805
     vertex 0.4420 0.5212 0.6492
   endloop
 endfacet
 facet normal 0.5856 0.4967 0.6406
   outer loop
     vertex 0.6492 0.4420 0.5212
     vertex 0.5419 0.5419 0.5419
     vertex 0.4420 0.5212 0.6492
   endloop
 endfacet
 facet normal 0.5869 0.4702 0.6591
   outer loop
     vertex 0.4420 0.5212 0.6492
     vertex 0.5509 0.3413 0.6805
     vertex 0.6492 0.4420 0.5212
   endloop
 endfacet
 facet normal 0.2214 0.8012 0.5560
   outer loop
     vertex 0.3413 0.6805 0.5509
     vertex 0.2604 0.8078 0.3998
     vertex 0.0000 0.8098 0.5005
   endloop
 endfacet
 facet normal 0.2095 0.7820 0.5870
   outer loop
     vertex 0.0000 0.8098 0.5005
     vertex 0.1609 0.6468 0.6602
     vertex 0.3413 0.6805 0.5509
   endloop
 endfacet
 facet normal 0.4189 0.8021 0.4256
   outer loop
     vertex 0.5212 0.6492 0.4420
     vertex 0.4683 0.7577 0.2894
     vertex 0.2604 0.8078 0.3998
   endloop
 endfacet
 facet normal 0.4101 0.7939 0.4489
   outer loop
     vertex 0.2604 0.8078 0.3998
     vertex 0.3413 0.6805 0.5509
     vertex 0.5212 0.6492 0.4420
   endloop
 endfacet
 facet normal 0.4967 0.6406 0.5856
   outer loop
     vertex 0.4420 0.5212 0.6492
     vertex 0.5419 0.5419 0.5419
     vertex 0.5212 0.6492 0.4420
   endloop
 endfacet
 facet normal 0.4702 0.6591 0.5869
   outer loop
     vertex 0.5212 0.6492 0.4420
     vertex 0.3413 0.6805 0.5509
     vertex 0.4420 0.5212 0.6492
   endloop
 endfacet
 facet normal 0.8012 0.5560 0.2214
   outer loop
     vertex 0.6805 0.5509 0.3413
     vertex 0.8078 0.3998 0.2604
     vertex 0.8098 0.5005 0.0000
   endloop
 endfacet
 facet normal 0.7820 0.5870 0.2095
   outer loop
     vertex 0.8098 0.5005 0.0000
     vertex 0.6468 0.6602 0.1609
     vertex 0.6805 0.5509 0.3413
   endloop
 endfacet
 facet normal 0.8021 0.4256 0.4189
   outer loop
     vertex 0.6492 0.4420 0.5212
     vertex 0.7577 0.2894 0.4683
     vertex 0.8078 0.3998 0.2604
   endloop
 endfacet
 facet normal 0.7939 0.4489 0.4101
   outer loop
     vertex 0.8078 0.3998 0.2604
     vertex 0.6805 0.5509 0.3413
     vertex 0.6492 0.4420 0.5212
   endloop
 endfacet
 facet normal 0.6406 0.5856 0.4967
   outer loop
     vertex 0.5212 0.6492 0.4420
     vertex 0.5419 0.5419 0.5419
     vertex 0.6492 0.4420 0.5212
   endloop
 endfacet
 facet normal 0.6591 0.5869 0.4702
   outer loop
     vertex 0.6492 0.4420 0.5212
     vertex 0.6805 0.5509 0.3413
     vertex 0.5212 0.6492 0.4420
   endloop
 endfacet
 facet normal 0.7820 -0.5870 0.2095
   outer loop
     vertex 0.6805 -0.5509 0.3413
     vertex 0.6468 -0.6602 0.1609
     vertex 0.8098 -0.5005 0.0000
   endloop
 endfacet
 facet normal 0.8012 -0.5560 0.2214
   outer loop
     vertex 0.8098 -0.5005 0.0000
     vertex 0.8078 -0.3998 0.2604
     vertex 0.6805 -0.5509 0.3413
   endloop
 endfacet
 facet normal 0.6159 -0.7269 0.3038
   outer loop
     vertex 0.5212 -0.6492 0.4420
     vertex 0.4683 -0.7577 0.2894
     vertex 0.6468 -0.6602 0.1609
   endloop
 endfacet
 facet normal 0.6334 -0.7086 0.3109
   outer loop
     vertex 0.6468 -0.6602 0.1609
     vertex 0.6805 -0.5509 0.3413
     vertex 0.5212 -0.6492 0.4420
   endloop
 endfacet
 facet normal 0.6406 -0.5856 0.4967
   outer loop
     vertex 0.6492 -0.4420 0.5212
     vertex 0.5419 -0.5419 0.5419
     vertex 0.5212 -0.6492 0.4420
   endloop
 endfacet
 facet normal 0.6591 -0.5869 0.4702
   outer loop
     vertex 0.5212 -0.6492 0.4420
     vertex 0.6805 -0.5509 0.3413
     vertex 0.6492 -0.4420 0.5212
   endloop
 endfacet
 facet normal 0.2095 -0.7820 0.5870
   outer loop
     vertex 0.3413 -0.6805 0.5509
     vertex 0.1609 -0.6468 0.6602
     vertex 0.0000 -0.8098 0.5005
   endloop
 endfacet
 facet normal 0.2214 -0.8012 0.5560
   outer loop
     vertex 0.0000 -0.8098 0.5005
     vertex 0.2604 -0.8078 0.3998
     vertex 0.3413 -0.6805 0.5509
   endloop
 endfacet
 facet normal 0.3038 -0.6159 0.7269
   outer loop
     vertex 0.4420 -0.5212 0.6492
     vertex 0.2894 -0.4683 0.7577
     vertex 0.1609 -0.6468 0.6602
   endloop
 endfacet
 facet normal 0.3109 -0.6334 0.7086
   outer loop
     vertex 0.1609 -0.6468 0.6602
     vertex 0.3413 -0.6805 0.5509
     vertex 0.4420 -0.5212 0.6492
   endloop
 endfacet
 facet normal 0.4967 -0.6406 0.5856
   outer loop
     vertex 0.5212 -0.6492 0.4420
     vertex 0.5419 -0.5419 0.5419
     vertex 0.4420 -0.5212 0.6492
   endloop
 endfacet
 facet normal 0.4702 -0.6591 0.5869
   outer loop
     vertex 0.4420 -0.5212 0.6492
     vertex 0.3413 -0.6805 0.5509
     vertex 0.5212 -0.6492 0.4420
   endloop
 endfacet
 facet normal 0.5870 -0.2095 0.7820
   outer loop
     vertex 0.5509 -0.3413 0.6805
     vertex 0.6602 -0.1609 0.6468
     vertex 0.5005 -0.0000 0.8098
   endloop
 endfacet
 facet normal 0.5560 -0.2214 0.8012
   outer loop
     vertex 0.5005 -0.0000 0.8098
     vertex 0.3998 -0.2604 0.8078
     vertex 0.5509 -0.3413 0.6805
   endloop
 endfacet
 facet normal 0.7269 -0.3038 0.6159
   outer loop
     vertex 0.6492 -0.4420 0.5212
     vertex 0.7577 -0.2894 0.4683
     vertex 0.6602 -0.1609 0.6468
   endloop
 endfacet
 facet normal 0.7086 -0.3109 0.6334
   outer loop
     vertex 0.6602 -0.1609 0.6468
     vertex 0.5509 -0.3413 0.6805
     vertex 0.6492 -0.4420 0.5212
   endloop
 endfacet
 facet normal 0.5856 -0.4967 0.6406
   outer loop
     vertex 0.4420 -0.5212 0.6492
     vertex 0.5419 -0.5419 0.5419
     vertex 0.6492 -0.4420 0.5212
   endloop
 endfacet
 facet normal 0.5869 -0.4702 0.6591
   outer loop
     vertex 0.6492 -0.4420 0.5212
     vertex 0.5509 -0.3413 0.6805
     vertex 0.4420 -0.5212 0.6492
   endloop
 endfacet
 facet normal -0.5560 -0.2214 0.8012
   outer loop
     vertex -0.5509 -0.3413 0.6805
     vertex -0.3998 -0.2604 0.8078
     vertex -0.5005 -0.0000 0.8098
   endloop
 endfacet
 facet normal -0.5870 -0.2095 0.7820
   outer loop
     vertex -0.5005 -0.0000 0.8098
     vertex -0.6602 -0.1609 0.6468
     vertex -0.5509 -0.3413 0.6805
   endloop
 endfacet
 facet normal -0.4256 -0.4189 0.8021
   outer loop
     vertex -0.4420 -0.5212 0.6492
     vertex -0.2894 -0.4683 0.7577
     vertex -0.3998 -0.2604 0.8078
   endloop
 endfacet
 facet normal -0.4489 -0.4101 0.7939
   outer loop
     vertex -0.3998 -0.2604 0.8078
     vertex -0.5509 -0.3413 0.6805
     vertex -0.4420 -0.5212 0.6492
   endloop
 endfacet
 facet normal -0.5856 -0.4967 0.6406
   outer loop
     vertex -0.6492 -0.4420 0.5212
     vertex -0.5419 -0.5419 0.5419
     vertex -0.4420 -0.5212 0.6492
   endloop
 endfacet
 facet normal -0.5869 -0.4702 0.6591
   outer loop
     vertex -0.4420 -0.5212 0.6492
     vertex -0.5509 -0.3413 0.6805
     vertex -0.6492 -0.4420 0.5212
   endloop
 endfacet
 facet normal -0.2214 -0.8012 0.5560
   outer loop
     vertex -0.3413 -0.6805 0.5509
     vertex -0.2604 -0.8078 0.3998
     vertex 0.0000 -0.8098 0.5005
   endloop
 endfacet
 facet normal -0.2095 -0.7820 0.5870
   outer loop
     vertex 0.0000 -0.8098 0.5005
     vertex -0.1609 -0.6468 0.6602
     vertex -0.3413 -0.6805 0.5509
   endloop
 endfacet
 facet normal -0.4189 -0.8021 0.4256
   outer loop
     vertex -0.5212 -0.6492 0.4420
     vertex -0.4683 -0.7577 0.2894
     vertex -0.2604 -0.8078 0.3998
   endloop
 endfacet
 facet normal -0.4101 -0.7939 0.4489
   outer loop
     vertex -0.2604 -0.8078 0.3998
     vertex -0.3413 -0.6805 0.5509
     vertex -0.5212 -0.6492 0.4420
   endloop
 endfacet
 facet normal -0.4967 -0.6406 0.5856
   outer loop
     vertex -0.4420 -0.5212 0.6492
     vertex -0.5419 -0.5419 0.5419
     vertex -0.5212 -0.6492 0.4420
   endloop
 endfacet
 facet normal -0.4702 -0.6591 0.5869
   outer loop
     vertex -0.5212 -0.6492 0.4420
     vertex -0.3413 -0.6805 0.5509
     vertex -0.4420 -0.5212 0.6492
   endloop
 endfacet
 facet normal -0.8012 -0.5560 0.2214
   outer loop
     vertex -0.6805 -0.5509 0.3413
     vertex -0.8078 -0.3998 0.2604
     vertex -0.8098 -0.5005 0.0000
   endloop
 endfacet
 facet normal -0.7820 -0.5870 0.2095
   outer loop
     vertex -0.8098 -0.5005 0.0000
     vertex -0.6468 -0.6602 0.1609
     vertex -0.6805 -0.5509 0.3413
   endloop
 endfacet
 facet normal -0.8021 -0.4256 0.4189
   outer loop
     vertex -0.6492 -0.4420 0.5212
     vertex -0.7577 -0.2894 0.4683
     vertex -0.8078 -0.3998 0.2604
   endloop
 endfacet
 facet normal -0.7939 -0.4489 0.4101
   outer loop
     vertex -0.8078 -0.3998 0.2604
     vertex -0.6805 -0.5509 0.3413
     vertex -0.6492 -0.4420 0.5212
   endloop
 endfacet
 facet normal -0.6406 -0.5856 0.4967
   outer loop
     vertex -0.5212 -0.6492 0.4420
     vertex -0.5419 -0.5419 0.5419
     vertex -0.6492 -0.4420 0.5212
   endloop
 endfacet
 facet normal -0.6591 -0.5869 0.4702
   outer loop
     vertex -0.6492 -0.4420 0.5212
     vertex -0.6805 -0.5509 0.3413
     vertex -0.5212 -0.6492 0.4420
   endloop
 endfacet
 facet normal -0.7820 0.5870 0.2095
   outer loop
     vertex -0.6805 0.5509 0.3413
     vertex -0.6468 0.6602 0.1609
     vertex -0.8098 0.5005 0.0000
   endloop
 endfacet
 facet normal -0.8012 0.5560 0.2214
   outer loop
     vertex -0.8098 0.5005 0.0000
     vertex -0.8078 0.3998 0.2604
     vertex -0.6805 0.5509 0.3413
   endloop
 endfacet
 facet normal -0.6159 0.7269 0.3038
   outer loop
     vertex -0.5212 0.6492 0.4420
     vertex -0.4683 0.7577 0.2894
     vertex -0.6468 0.6602 0.1609
   endloop
 endfacet
 facet normal -0.6334 0.7086 0.3109
   outer loop
     vertex -0.6468 0.6602 0.1609
     vertex -0.6805 0.5509 0.3413
     vertex -0.5212 0.6492 0.4420
   endloop
 endfacet
 facet normal -0.6406 0.5856 0.4967
   outer loop
     vertex -0.6492 0.4420 0.5212
     vertex -0.5419 0.5419 0.5419
     vertex -0.5212 0.6492 0.4420
   endloop
 endfacet
 facet normal -0.6591 0.5869 0.4702
   outer loop
     vertex -0.5212 0.6492 0.4420
     vertex -0.6805 0.5509 0.3413
     vertex -0.6492 0.4420 0.5212
   endloop
 endfacet
 facet normal -0.2095 0.7820 0.5870
   outer loop
     vertex -0.3413 0.6805 0.5509
     vertex -0.1609 0.6468 0.6602
     vertex 0.0000 0.8098 0.5005
   endloop
 endfacet
 facet normal -0.2214 0.8012 0.5560
   outer loop
     vertex 0.0000 0.8098 0.5005
     vertex -0.2604 0.8078 0.3998
     vertex -0.3413 0.6805 0.5509
   endloop
 endfacet
 facet normal -0.3038 0.6159 0.7269
   outer loop
     vertex -0.4420 0.5212 0.6492
     vertex -0.2894 0.4683 0.7577
     vertex -0.1609 0.6468 0.6602
   endloop
 endfacet
 facet normal -0.3109 0.6334 0.7086
   outer loop
     vertex -0.1609 0.6468 0.6602
     vertex -0.3413 0.6805 0.5509
     vertex -0.4420 0.5212 0.6492
   endloop
 endfacet
 facet normal -0.4967 0.6406 0.5856
   outer loop
     vertex -0.5212 0.6492 0.4420
     vertex -0.5419 0.5419 0.5419
     vertex -0.4420 0.5212 0.6492
   endloop
 endfacet
 facet normal -0.4702 0.6591 0.5869
   outer loop
     vertex -0.4420 0.5212 0.6492
     vertex -0.3413 0.6805 0.5509
     vertex -0.5212 0.6492 0.4420
   endloop
 endfacet
 facet normal -0.5870 0.2095 0.7820
   outer loop
     vertex -0.5509 0.3413 0.6805
     vertex -0.6602 0.1609 0.6468
     vertex -0.5005 -0.0000 0.8098
   endloop
 endfacet
 facet normal -0.5560 0.2214 0.8012
   outer loop
     vertex -0.5005 -0.0000 0.8098
     vertex -0.3998 0.2604 0.8078
     vertex -0.5509 0.3413 0.6805
   endloop
 endfacet
 facet normal -0.7269 0.3038 0.6159
   outer loop
     vertex -0.6492 0.4420 0.5212
     vertex -0.7577 0.2894 0.4683
     vertex -0.6602 0.1609 0.6468
   endloop
 endfacet
 facet normal -0.7086 0.3109 0.6334
   outer loop
     vertex -0.6602 0.1609 0.6468
     vertex -0.5509 0.3413 0.6805
     vertex -0.6492 0.4420 0.5212
   endloop
 endfacet
 facet normal -0.5856 0.4967 0.6406
   outer loop
     vertex -0.4420 0.5212 0.6492
     vertex -0.5419 0.5419 0.5419
     vertex -0.6492 0.4420 0.5212
   endloop
 endfacet
 facet normal -0.5869 0.4702 0.6591
   outer loop
     vertex -0.6492 0.4420 0.5212
     vertex -0.5509 0.3413 0.6805
     vertex -0.4420 0.5212 0.6492
   endloop
 endfacet
 facet normal -0.7820 -0.5870 -0.2095
   outer loop
     vertex -0.6805 -0.5509 -0.3413
     vertex -0.6468 -0.6602 -0.1609
     vertex -0.8098 -0.5005 0.0000
   endloop
 endfacet
 facet normal -0.8012 -0.5560 -0.2214
   outer loop
     vertex -0.8098 -0.5005 0.0000
     vertex -0.8078 -0.3998 -0.2604
     vertex -0.6805 -0.5509 -0.3413
   endloop
 endfacet
 facet normal -0.6159 -0.7269 -0.3038
   outer loop
     vertex -0.5212 -0.6492 -0.4420
     vertex -0.4683 -0.7577 -0.2894
     vertex -0.6468 -0.6602 -0.1609
   endloop
 endfacet
 facet normal -0.6334 -0.7086 -0.3109
   outer loop
     vertex -0.6468 -0.6602 -0.1609
     vertex -0.6805 -0.5509 -0.3413
     vertex -0.5212 -0.6492 -0.4420
   endloop
 endfacet
 facet normal -0.6406 -0.5856 -0.4967
   outer loop
     vertex -0.6492 -0.4420 -0.5212
     vertex -0.5419 -0.5419 -0.5419
     vertex -0.5212 -0.6492 -0.4420
   endloop
 endfacet
 facet normal -0.6591 -0.5869 -0.4702
   outer loop
     vertex -0.5212 -0.6492 -0.4420
     vertex -0.6805 -0.5509 -0.3413
     vertex -0.6492 -0.4420 -0.5212
   endloop
 endfacet
 facet normal -0.2095 -0.7820 -0.5870
   outer loop
     vertex -0.3413 -0.6805 -0.5509
     vertex -0.1609 -0.6468 -0.6602
     vertex 0.0000 -0.8098 -0.5005
   endloop
 endfacet
 facet normal -0.2214 -0.8012 -0.5560
   outer loop
     vertex 0.0000 -0.8098 -0.5005
     vertex -0.2604 -0.8078 -0.3998
     vertex -0.3413 -0.6805 -0.5509
   endloop
 endfacet
 facet normal -0.3038 -0.6159 -0.7269
   outer loop
     vertex -0.4420 -0.5212 -0.6492
     vertex -0.2894 -0.4683 -0.7577
     vertex -0.1609 -0.6468 -0.6602
   endloop
 endfacet
 facet normal -0.3109 -0.6334 -0.7086
   outer loop
     vertex -0.1609 -0.6468 -0.6602
     vertex -0.3413 -0.6805 -0.5509
     vertex -0.4420 -0.5212 -0.6492
   endloop
 endfacet
 facet normal -0.4967 -0.6406 -0.5856
   outer loop
     vertex -0.5212 -0.6492 -0.4420
     vertex -0.5419 -0.5419 -0.5419
     vertex -0.4420 -0.5212 -0.6492
   endloop
 endfacet
 facet normal -0.4702 -0.6591 -0.5869
   outer loop
     vertex -0.4420 -0.5212 -0.6492
     vertex -0.3413 -0.6805 -0.5509
     vertex -0.5212 -0.6492 -0.4420
   endloop
 endfacet
 facet normal -0.5870 -0.2095 -0.7820
   outer loop
     vertex -0.5509 -0.3413 -0.6805
     vertex -0.6602 -0.1609 -0.6468
     vertex -0.5005 -0.0000 -0.8098
   endloop
 endfacet
 facet normal -0.5560 -0.2214 -0.8012
   outer loop
     vertex -0.5005 -0.0000 -0.8098
     vertex -0.3998 -0.2604 -0.8078
     vertex -0.5509 -0.3413 -0.6805
   endloop
 endfacet
 facet normal -0.7269 -0.3038 -0.6159
   outer loop
     vertex -0.6492 -0.4420 -0.5212
     vertex -0.7577 -0.2894 -0.4683
     vertex -0.6602 -0.1609 -0.6468
   endloop
 endfacet
 facet normal -0.7086 -0.3109 -0.6334
   outer loop
     vertex -0.6602 -0.1609 -0.6468
     vertex -0.5509 -0.3413 -0.6805
     vertex -0.6492 -0.4420 -0.5212
   endloop
 endfacet
 facet normal -0.5856 -0.4967 -0.6406
   outer loop
     vertex -0.4420 -0.5212 -0.6492
     vertex -0.5419 -0.5419 -0.5419
     vertex -0.6492 -0.4420 -0.5212
   endloop
 endfacet
 facet normal -0.5869 -0.4702 -0.6591
   outer loop
     vertex -0.6492 -0.4420 -0.5212
     vertex -0.5509 -0.3413 -0.6805
     vertex -0.4420 -0.5212 -0.6492
   endloop
 endfacet
 facet normal -0.2214 0.8012 -0.5560
   outer loop
     vertex -0.3413 0.6805 -0.5509
     vertex -0.2604 0.8078 -0.3998
     vertex 0.0000 0.8098 -0.5005
   endloop
 endfacet
 facet normal -0.2095 0.7820 -0.5870
   outer loop
     vertex 0.0000 0.8098 -0.5005
     vertex -0.1609 0.6468 -0.6602
     vertex -0.3413 0.6805 -0.5509
   endloop
 endfacet
 facet normal -0.4189 0.8021 -0.4256
   outer loop
     vertex -0.5212 0.6492 -0.4420
     vertex -0.4683 0.7577 -0.2894
     vertex -0.2604 0.8078 -0.3998
   endloop
 endfacet
 facet normal -0.4101 0.7939 -0.4489
   outer loop
     vertex -0.2604 0.8078 -0.3998
     vertex -0.3413 0.6805 -0.5509
     vertex -0.5212 0.6492 -0.4420
   endloop
 endfacet
 facet normal -0.4967 0.6406 -0.5856
   outer loop
     vertex -0.4420 0.5212 -0.6492
     vertex -0.5419 0.5419 -0.5419
     vertex -0.5212 0.6492 -0.4420
   endloop
 endfacet
 facet normal -0.4702 0.6591 -0.5869
   outer loop
     vertex -0.5212 0.6492 -0.4420
     vertex -0.3413 0.6805 -0.5509
     vertex -0.4420 0.5212 -0.6492
   endloop
 endfacet
 facet normal -0.8012 0.5560 -0.2214
   outer loop
     vertex -0.6805 0.5509 -0.3413
     vertex -0.8078 0.3998 -0.2604
     vertex -0.8098 0.5005 0.0000
   endloop
 endfacet
 facet normal -0.7820 0.5870 -0.2095
   outer loop
     vertex -0.8098 0.5005 0.0000
     vertex -0.6468 0.6602 -0.1609
     vertex -0.6805 0.5509 -0.3413
   endloop
 endfacet
 facet normal -0.8021 0.4256 -0.4189
   outer loop
     vertex -0.6492 0.4420 -0.5212
     vertex -0.7577 0.2894 -0.4683
     vertex -0.8078 0.3998 -0.2604
   endloop
 endfacet
 facet normal -0.7939 0.4489 -0.4101
   outer loop
     vertex -0.8078 0.3998 -0.2604
     vertex -0.6805 0.5509 -0.3413
     vertex -0.6492 0.4420 -0.5212
   endloop
 endfacet
 facet normal -0.6406 0.5856 -0.4967
   outer loop
     vertex -0.5212 0.6492 -0.4420
     vertex -0.5419 0.5419 -0.5419
     vertex -0.6492 0.4420 -0.5212
   endloop
 endfacet
 facet normal -0.6591 0.5869 -0.4702
   outer loop
     vertex -0.6492 0.4420 -0.5212
     vertex -0.6805 0.5509 -0.3413
     vertex -0.5212 0.6492 -0.4420
   endloop
 endfacet
 facet normal -0.5560 0.2214 -0.8012
   outer loop
     vertex -0.5509 0.3413 -0.6805
     vertex -0.3998 0.2604 -0.8078
     vertex -0.5005 -0.0000 -0.8098
   endloop
 endfacet
 facet normal -0.5870 0.2095 -0.7820
   outer loop
     vertex -0.5005 -0.0000 -0.8098
     vertex -0.6602 0.1609 -0.6468
     vertex -0.5509 0.3413 -0.6805
   endloop
 endfacet
 facet normal -0.4256 0.4189 -0.8021
   outer loop
     vertex -0.4420 0.5212 -0.6492
     vertex -0.2894 0.4683 -0.7577
     vertex -0.3998 0.2604 -0.8078
   endloop
 endfacet
 facet normal -0.4489 0.4101 -0.7939
   outer loop
     vertex -0.3998 0.2604 -0.8078
     vertex -0.5509 0.3413 -0.6805
     vertex -0.4420 0.5212 -0.6492
   endloop
 endfacet
 facet normal -0.5856 0.4967 -0.6406
   outer loop
     vertex -0.6492 0.4420 -0.5212
     vertex -0.5419 0.5419 -0.5419
     vertex -0.4420 0.5212 -0.6492
   endloop
 endfacet
 facet normal -0.5869 0.4702 -0.6591
   outer loop
     vertex -0.4420 0.5212 -0.6492
     vertex -0.5509 0.3413 -0.6805
     vertex -0.6492 0.4420 -0.5212
   endloop
 endfacet
 facet normal 0.2095 0.7820 -0.5870
   outer loop
     vertex 0.3413 0.6805 -0.5509
     vertex 0.1609 0.6468 -0.6602
     vertex 0.0000 0.8098 -0.5005
   endloop
 endfacet
 facet normal 0.2214 0.8012 -0.5560
   outer loop
     vertex 0.0000 0.8098 -0.5005
     vertex 0.2604 0.8078 -0.3998
     vertex 0.3413 0.6805 -0.5509
   endloop
 endfacet
 facet normal 0.3038 0.6159 -0.7269
   outer loop
     vertex 0.4420 0.5212 -0.6492
     vertex 0.2894 0.4683 -0.7577
     vertex 0.1609 0.6468 -0.6602
   endloop
 endfacet
 facet normal 0.3109 0.6334 -0.7086
   outer loop
     vertex 0.1609 0.6468 -0.6602
     vertex 0.3413 0.6805 -0.5509
     vertex 0.4420 0.5212 -0.6492
   endloop
 endfacet
 facet normal 0.4967 0.6406 -0.5856
   outer loop
     vertex 0.5212 0.6492 -0.4420
     vertex 0.5419 0.5419 -0.5419
     vertex 0.4420 0.5212 -0.6492
   endloop
 endfacet
 facet normal 0.4702 0.6591 -0.5869
   outer loop
     vertex 0.4420 0.5212 -0.6492
     vertex 0.3413 0.6805 -0.5509
     vertex 0.5212 0.6492 -0.4420
   endloop
 endfacet
 facet normal 0.5870 0.2095 -0.7820
   outer loop
     vertex 0.5509 0.3413 -0.6805
     vertex 0.6602 0.1609 -0.6468
     vertex 0.5005 -0.0000 -0.8098
   endloop
 endfacet
 facet normal 0.5560 0.2214 -0.8012
   outer loop
     vertex 0.5005 -0.0000 -0.8098
     vertex 0.3998 0.2604 -0.8078
     vertex 0.5509 0.3413 -0.6805
   endloop
 endfacet
 facet normal 0.7269 0.3038 -0.6159
   outer loop
     vertex 0.6492 0.4420 -0.5212
     vertex 0.7577 0.2894 -0.4683
     vertex 0.6602 0.1609 -0.6468
   endloop
 endfacet
 facet normal 0.7086 0.3109 -0.6334
   outer loop
     vertex 0.6602 0.1609 -0.6468
     vertex 0.5509 0.3413 -0.6805
     vertex 0.6492 0.4420 -0.5212
   endloop
 endfacet
 facet normal 0.5856 0.4967 -0.6406
   outer loop
     vertex 0.4420 0.5212 -0.6492
     vertex 0.5419 0.5419 -0.5419
     vertex 0.6492 0.4420 -0.5212
   endloop
 endfacet
 facet normal 0.5869 0.4702 -0.6591
   outer loop
     vertex 0.6492 0.4420 -0.5212
     vertex 0.5509 0.3413 -0.6805
     vertex 0.4420 0.5212 -0.6492
   endloop
 endfacet
 facet normal 0.7820 0.5870 -0.2095
   outer loop
     vertex 0.6805 0.5509 -0.3413
     vertex 0.6468 0.6602 -0.1609
     vertex 0.8098 0.5005 0.0000
   endloop
 endfacet
 facet normal 0.8012 0.5560 -0.2214
   outer loop
     vertex 0.8098 0.5005 0.0000
     vertex 0.8078 0.3998 -0.2604
     vertex 0.6805 0.5509 -0.3413
   endloop
 endfacet
 facet normal 0.6159 0.7269 -0.3038
   outer loop
     vertex 0.5212 0.6492 -0.4420
     vertex 0.4683 0.7577 -0.2894
     vertex 0.6468 0.6602 -0.1609
   endloop
 endfacet
 facet normal 0.6334 0.7086 -0.3109
   outer loop
     vertex 0.6468 0.6602 -0.1609
     vertex 0.6805 0.5509 -0.3413
     vertex 0.5212 0.6492 -0.4420
   endloop
 endfacet
 facet normal 0.6406 0.5856 -0.4967
   outer loop
     vertex 0.6492 0.4420 -0.5212
     vertex 0.5419 0.5419 -0.5419
     vertex 0.5212 0.6492 -0.4420
   endloop
 endfacet
 facet normal 0.6591 0.5869 -0.4702
   outer loop
     vertex 0.5212 0.6492 -0.4420
     vertex 0.6805 0.5509 -0.3413
     vertex 0.6492 0.4420 -0.5212
   endloop
 endfacet
 facet normal 0.8012 -0.5560 -0.2214
   outer loop
     vertex 0.6805 -0.5509 -0.3413
     vertex 0.8078 -0.3998 -0.2604
     vertex 0.8098 -0.5005 0.0000
   endloop
 endfacet
 facet normal 0.7820 -0.5870 -0.2095
   outer loop
     vertex 0.8098 -0.5005 0.0000
     vertex 0.6468 -0.6602 -0.1609
     vertex 0.6805 -0.5509 -0.3413
   endloop
 endfacet
 facet normal 0.8021 -0.4256 -0.4189
   outer loop
     vertex 0.6492 -0.4420 -0.5212
     vertex 0.7577 -0.2894 -0.4683
     vertex 0.8078 -0.3998 -0.2604
   endloop
 endfacet
 facet normal 0.7939 -0.4489 -0.4101
   outer loop
     vertex 0.8078 -0.3998 -0.2604
     vertex 0.6805 -0.5509 -0.3413
     vertex 0.6492 -0.4420 -0.5212
   endloop
 endfacet
 facet normal 0.6406 -0.5856 -0.4967
   outer loop
     vertex 0.5212 -0.6492 -0.4420
     vertex 0.5419 -0.5419 -0.5419
     vertex 0.6492 -0.4420 -0.5212
   endloop
 endfacet
 facet normal 0.6591 -0.5869 -0.4702
   outer loop
     vertex 0.6492 -0.4420 -0.5212
     vertex 0.6805 -0.5509 -0.3413
     vertex 0.5212 -0.6492 -0.4420
   endloop
 endfacet
 facet normal 0.5560 -0.2214 -0.8012
   outer loop
     vertex 0.5509 -0.3413 -0.6805
     vertex 0.3998 -0.2604 -0.8078
     vertex 0.5005 -0.0000 -0.8098
   endloop
 endfacet
 facet normal 0.5870 -0.2095 -0.7820
   outer loop
     vertex 0.5005 -0.0000 -0.8098
     vertex 0.6602 -0.1609 -0.6468
     vertex 0.5509 -0.3413 -0.6805
   endloop
 endfacet
 facet normal 0.4256 -0.4189 -0.8021
   outer loop
     vertex 0.4420 -0.5212 -0.6492
     vertex 0.2894 -0.4683 -0.7577
     vertex 0.3998 -0.2604 -0.8078
   endloop
 endfacet
 facet normal 0.4489 -0.4101 -0.7939
   outer loop
     vertex 0.3998 -0.2604 -0.8078
     vertex 0.5509 -0.3413 -0.6805
     vertex 0.4420 -0.5212 -0.6492
   endloop
 endfacet
 facet normal 0.5856 -0.4967 -0.6406
   outer loop
     vertex 0.6492 -0.4420 -0.5212
     vertex 0.5419 -0.5419 -0.5419
     vertex 0.4420 -0.5212 -0.6492
   endloop
 endfacet
 facet normal 0.5869 -0.4702 -0.6591
   outer loop
     vertex 0.4420 -0.5212 -0.6492
     vertex 0.5509 -0.3413 -0.6805
     vertex 0.6492 -0.4420 -0.5212
   endloop
 endfacet
 facet normal 0.2214 -0.8012 -0.5560
   outer loop
     vertex 0.3413 -0.6805 -0.5509
     vertex 0.2604 -0.8078 -0.3998
     vertex 0.0000 -0.8098 -0.5005
   endloop
 endfacet
 facet normal 0.2095 -0.7820 -0.5870
   outer loop
     vertex 0.0000 -0.8098 -0.5005
     vertex 0.1609 -0.6468 -0.6602
     vertex 0.3413 -0.6805 -0.5509
   endloop
 endfacet
 facet normal 0.4189 -0.8021 -0.4256
   outer loop
     vertex 0.5212 -0.6492 -0.4420
     vertex 0.4683 -0.7577 -0.2894
     vertex 0.2604 -0.8078 -0.3998
   endloop
 endfacet
 facet normal 0.4101 -0.7939 -0.4489
   outer loop
     vertex 0.2604 -0.8078 -0.3998
     vertex 0.3413 -0.6805 -0.5509
     vertex 0.5212 -0.6492 -0.4420
   endloop
 endfacet
 facet normal 0.4967 -0.6406 -0.5856
   outer loop
     vertex 0.4420 -0.5212 -0.6492
     vertex 0.5419 -0.5419 -0.5419
     vertex 0.5212 -0.6492 -0.4420
   endloop
 endfacet
 facet normal 0.4702 -0.6591 -0.5869
   outer loop
     vertex 0.5212 -0.6492 -0.4420
     vertex 0.3413 -0.6805 -0.5509
     vertex 0.4420 -0.5212 -0.6492
   endloop
 endfacet
 facet normal 0.7047 0.0192 0.7093
   outer loop
     vertex 0.7619 -0.0000 0.5501
     vertex 0.6602 0.1609 0.6468
     vertex 0.5005 -0.0000 0.8098
   endloop
 endfacet
 facet normal 0.7047 -0.0192 0.7093
   outer loop
     vertex 0.5005 -0.0000 0.8098
     vertex 0.6602 -0.1609 0.6468
     vertex 0.7619 -0.0000 0.5501
   endloop
 endfacet
 facet normal 0.7995 0.1862 0.5710
   outer loop
     vertex 0.8433 0.1280 0.4012
     vertex 0.7577 0.2894 0.4683
     vertex 0.6602 0.1609 0.6468
   endloop
 endfacet
 facet normal 0.8016 0.1605 0.5760
   outer loop
     vertex 0.6602 0.1609 0.6468
     vertex 0.7619 -0.0000 0.5501
     vertex 0.8433 0.1280 0.4012
   endloop
 endfacet
 facet normal 0.8926 0.0000 0.4508
   outer loop
     vertex 0.8433 -0.1280 0.4012
     vertex 0.8768 -0.0000 0.3349
     vertex 0.8433 0.1280 0.4012
   endloop
 endfacet
 facet normal 0.8775 0.0000 0.4795
   outer loop
     vertex 0.8433 0.1280 0.4012
     vertex 0.7619 -0.0000 0.5501
     vertex 0.8433 -0.1280 0.4012
   endloop
 endfacet
 facet normal 0.9307 0.3465 0.1177
   outer loop
     vertex 0.8914 0.2096 0.2109
     vertex 0.9072 0.2388 0.0000
     vertex 0.8098 0.5005 0.0000
   endloop
 endfacet
 facet normal 0.9188 0.3656 0.1487
   outer loop
     vertex 0.8098 0.5005 0.0000
     vertex 0.8078 0.3998 0.2604
     vertex 0.8914 0.2096 0.2109
   endloop
 endfacet
 facet normal 0.9899 0.1218 0.0727
   outer loop
     vertex 0.9224 -0.0000 0.1941
     vertex 0.9366 -0.0000 0.0000
     vertex 0.9072 0.2388 0.0000
   endloop
 endfacet
 facet normal 0.9861 0.1380 0.0929
   outer loop
     vertex 0.9072 0.2388 0.0000
     vertex 0.8914 0.2096 0.2109
     vertex 0.9224 -0.0000 0.1941
   endloop
 endfacet
 facet normal 0.9476 0.0889 0.3070
   outer loop
     vertex 0.8433 0.1280 0.4012
     vertex 0.8768 -0.0000 0.3349
     vertex 0.9224 -0.0000 0.1941
   endloop
 endfacet
 facet normal 0.9497 0.1168 0.2906
   outer loop
     vertex 0.9224 -0.0000 0.1941
     vertex 0.8914 0.2096 0.2109
     vertex 0.8433 0.1280 0.4012
   endloop
 endfacet
 facet normal 0.9188 -0.3656 0.1487
   outer loop
     vertex 0.8914 -0.2096 0.2109
     vertex 0.8078 -0.3998 0.2604
     vertex 0.8098 -0.5005 0.0000
   endloop
 endfacet
 facet normal 0.9307 -0.3465 0.1177
   outer loop
     vertex 0.8098 -0.5005 0.0000
     vertex 0.9072 -0.2388 -0.0000
     vertex 0.8914 -0.2096 0.2109
   endloop
 endfacet
 facet normal 0.8748 -0.3080 0.3740
   outer loop
     vertex 0.8433 -0.1280 0.4012
     vertex 0.7577 -0.2894 0.4683
     vertex 0.8078 -0.3998 0.2604
   endloop
 endfacet
 facet normal 0.8869 -0.2985 0.3526
   outer loop
     vertex 0.8078 -0.3998 0.2604
     vertex 0.8914 -0.2096 0.2109
     vertex 0.8433 -0.1280 0.4012
   endloop
 endfacet
 facet normal 0.9476 -0.0889 0.3070
   outer loop
     vertex 0.9224 -0.0000 0.1941
     vertex 0.8768 -0.0000 0.3349
     vertex 0.8433 -0.1280 0.4012
   endloop
 endfacet
 facet normal 0.9497 -0.1168 0.2906
   outer loop
     vertex 0.8433 -0.1280 0.4012
     vertex 0.8914 -0.2096 0.2109
     vertex 0.9224 -0.0000 0.1941
   endloop
 endfacet
 facet normal 0.7047 -0.0192 -0.7093
   outer loop
     vertex 0.7619 -0.0000 -0.5501
     vertex 0.6602 -0.1609 -0.6468
     vertex 0.5005 -0.0000 -0.8098
   endloop
 endfacet
 facet normal 0.7047 0.0192 -0.7093
   outer loop
     vertex 0.5005 -0.0000 -0.8098
     vertex 0.6602 0.1609 -0.6468
     vertex 0.7619 -0.0000 -0.5501
   endloop
 endfacet
 facet normal 0.7995 -0.1862 -0.5710
   outer loop
     vertex 0.8433 -0.1280 -0.4012
     vertex 0.7577 -0.2894 -0.4683
     vertex 0.6602 -0.1609 -0.6468
   endloop
 endfacet
 facet normal 0.8016 -0.1605 -0.5760
   outer loop
     vertex 0.6602 -0.1609 -0.6468
     vertex 0.7619 -0.0000 -0.5501
     vertex 0.8433 -0.1280 -0.4012
   endloop
 endfacet
 facet normal 0.8926 -0.0000 -0.4508
   outer loop
     vertex 0.8433 0.1280 -0.4012
     vertex 0.8768 -0.0000 -0.3349
     vertex 0.8433 -0.1280 -0.4012
   endloop
 endfacet
 facet normal 0.8775 -0.0000 -0.4795
   outer loop
     vertex 0.8433 -0.1280 -0.4012
     vertex 0.7619 -0.0000 -0.5501
     vertex 0.8433 0.1280 -0.4012
   endloop
 endfacet
 facet normal 0.9307 -0.3465 -0.1177
   outer loop
     vertex 0.8914 -0.2096 -0.2109
     vertex 0.9072 -0.2388 -0.0000
     vertex 0.8098 -0.5005 0.0000
   endloop
 endfacet
 facet normal 0.9188 -0.3656 -0.1487
   outer loop
     vertex 0.8098 -0.5005 0.0000
     vertex 0.8078 -0.3998 -0.2604
     vertex 0.8914 -0.2096 -0.2109
   endloop
 endfacet
 facet normal 0.9899 -0.1218 -0.0727
   outer loop
     vertex 0.9224 -0.0000 -0.1941
     vertex 0.9366 -0.0000 0.0000
     vertex 0.9072 -0.2388 -0.0000
   endloop
 endfacet
 facet normal 0.9861 -0.1380 -0.0929
   outer loop
     vertex 0.9072 -0.2388 -0.0000
     vertex 0.8914 -0.2096 -0.2109
     vertex 0.9224 -0.0000 -0.1941
   endloop
 endfacet
 facet normal 0.9476 -0.0889 -0.3070
   outer loop
     vertex 0.8433 -0.1280 -0.4012
     vertex 0.8768 -0.0000 -0.3349
     vertex 0.9224 -0.0000 -0.1941
   endloop
 endfacet
 facet normal 0.9497 -0.1168 -0.2906
   outer loop
     vertex 0.9224 -0.0000 -0.1941
     vertex 0.8914 -0.2096 -0.2109
     vertex 0.8433 -0.1280 -0.4012
   endloop
 endfacet
 facet normal 0.9188 0.3656 -0.1487
   outer loop
     vertex 0.8914 0.2096 -0.2109
     vertex 0.8078 0.3998 -0.2604
     vertex 0.8098 0.5005 0.0000
   endloop
 endfacet
 facet normal 0.9307 0.3465 -0.1177
   outer loop
     vertex 0.8098 0.5005 0.0000
     vertex 0.9072 0.2388 0.0000
     vertex 0.8914 0.2096 -0.2109
   endloop
 endfacet
 facet normal 0.8748 0.3080 -0.3740
   outer loop
     vertex 0.8433 0.1280 -0.4012
     vertex 0.7577 0.2894 -0.4683
     vertex 0.8078 0.3998 -0.2604
   endloop
 endfacet
 facet normal 0.8869 0.2985 -0.3526
   outer loop
     vertex 0.8078 0.3998 -0.2604
     vertex 0.8914 0.2096 -0.2109
     vertex 0.8433 0.1280 -0.4012
   endloop
 endfacet
 facet normal 0.9476 0.0889 -0.3070
   outer loop
     vertex 0.9224 -0.0000 -0.1941
     vertex 0.8768 -0.0000 -0.3349
     vertex 0.8433 0.1280 -0.4012
   endloop
 endfacet
 facet normal 0.9497 0.1168 -0.2906
   outer loop
     vertex 0.8433 0.1280 -0.4012
     vertex 0.8914 0.2096 -0.2109
     vertex 0.9224 -0.0000 -0.1941
   endloop
 endfacet
 facet normal -0.7047 0.0192 -0.7093
   outer loop
     vertex -0.7619 -0.0000 -0.5501
     vertex -0.6602 0.1609 -0.6468
     vertex -0.5005 -0.0000 -0.8098
   endloop
 endfacet
 facet normal -0.7047 -0.0192 -0.7093
   outer loop
     vertex -0.5005 -0.0000 -0.8098
     vertex -0.6602 -0.1609 -0.6468
     vertex -0.7619 -0.0000 -0.5501
   endloop
 endfacet
 facet normal -0.7995 0.1862 -0.5710
   outer loop
     vertex -0.8433 0.1280 -0.4012
     vertex -0.7577 0.2894 -0.4683
     vertex -0.6602 0.1609 -0.6468
   endloop
 endfacet
 facet normal -0.8016 0.1605 -0.5760
   outer loop
     vertex -0.6602 0.1609 -0.6468
     vertex -0.7619 -0.0000 -0.5501
     vertex -0.8433 0.1280 -0.4012
   endloop
 endfacet
 facet normal -0.8926 0.0000 -0.4508
   outer loop
     vertex -0.8433 -0.1280 -0.4012
     vertex -0.8768 -0.0000 -0.3349
     vertex -0.8433 0.1280 -0.4012
   endloop
 endfacet
 facet normal -0.8775 0.0000 -0.4795
   outer loop
     vertex -0.8433 0.1280 -0.4012
     vertex -0.7619 -0.0000 -0.5501
     vertex -0.8433 -0.1280 -0.4012
   endloop
 endfacet
 facet normal -0.9307 0.3465 -0.1177
   outer loop
     vertex -0.8914 0.2096 -0.2109
     vertex -0.9072 0.2388 0.0000
     vertex -0.8098 0.5005 0.0000
   endloop
 endfacet
 facet normal -0.9188 0.3656 -0.1487
   outer loop
     vertex -0.8098 0.5005 0.0000
     vertex -0.8078 0.3998 -0.2604
     vertex -0.8914 0.2096 -0.2109
   endloop
 endfacet
 facet normal -0.9899 0.1218 -0.0727
   outer loop
     vertex -0.9224 -0.0000 -0.1941
     vertex -0.9366 -0.0000 0.0000
     vertex -0.9072 0.2388 0.0000
   endloop
 endfacet
 facet normal -0.9861 0.1380 -0.0929
   outer loop
     vertex -0.9072 0.2388 0.0000
     vertex -0.8914 0.2096 -0.2109
     vertex -0.9224 -0.0000 -0.1941
   endloop
 endfacet
 facet normal -0.9476 0.0889 -0.3070
   outer loop
     vertex -0.8433 0.1280 -0.4012
     vertex -0.8768 -0.0000 -0.3349
     vertex -0.9224 -0.0000 -0.1941
   endloop
 endfacet
 facet normal -0.9497 0.1168 -0.2906
   outer loop
     vertex -0.9224 -0.0000 -0.1941
     vertex -0.8914 0.2096 -0.2109
     vertex -0.8433 0.1280 -0.4012
   endloop
 endfacet
 facet normal -0.9188 -0.3656 -0.1487
   outer loop
     vertex -0.8914 -0.2096 -0.2109
     vertex -0.8078 -0.3998 -0.2604
     vertex -0.8098 -0.5005 0.0000
   endloop
 endfacet
 facet normal -0.9307 -0.3465 -0.1177
   outer loop
     vertex -0.8098 -0.5005 0.0000
     vertex -0.9072 -0.2388 0.0000
     vertex -0.8914 -0.2096 -0.2109
   endloop
 endfacet
 facet normal -0.8748 -0.3080 -0.3740
   outer loop
     vertex -0.8433 -0.1280 -0.4012
     vertex -0.7577 -0.2894 -0.4683
     vertex -0.8078 -0.3998 -0.2604
   endloop
 endfacet
 facet normal -0.8869 -0.2985 -0.3526
   outer loop
     vertex -0.8078 -0.3998 -0.2604
     vertex -0.8914 -0.2096 -0.2109
     vertex -0.8433 -0.1280 -0.4012
   endloop
 endfacet
 facet normal -0.9476 -0.0889 -0.3070
   outer loop
     vertex -0.9224 -0.0000 -0.1941
     vertex -0.8768 -0.0000 -0.3349
     vertex -0.8433 -0.1280 -0.4012
   endloop
 endfacet
 facet normal -0.9497 -0.1168 -0.2906
   outer loop
     vertex -0.8433 -0.1280 -0.4012
     vertex -0.8914 -0.2096 -0.2109
     vertex -0.9224 -0.0000 -0.1941
   endloop
 endfacet
 facet normal -0.7047 -0.0192 0.7093
   outer loop
     vertex -0.7619 -0.0000 0.5501
     vertex -0.6602 -0.1609 0.6468
     vertex -0.5005 -0.0000 0.8098
   endloop
 endfacet
 facet normal -0.7047 0.0192 0.7093
   outer loop
     vertex -0.5005 -0.0000 0.8098
     vertex -0.6602 0.1609 0.6468
     vertex -0.7619 -0.0000 0.5501
   endloop
 endfacet
 facet normal -0.7995 -0.1862 0.5710
   outer loop
     vertex -0.8433 -0.1280 0.4012
     vertex -0.7577 -0.2894 0.4683
     vertex -0.6602 -0.1609 0.6468
   endloop
 endfacet
 facet normal -0.8016 -0.1605 0.5760
   outer loop
     vertex -0.6602 -0.1609 0.6468
     vertex -0.7619 -0.0000 0.5501
     vertex -0.8433 -0.1280 0.4012
   endloop
 endfacet
 facet normal -0.8926 -0.0000 0.4508
   outer loop
     vertex -0.8433 0.1280 0.4012
     vertex -0.8768 -0.0000 0.3349
     vertex -0.8433 -0.1280 0.4012
   endloop
 endfacet
 facet normal -0.8775 -0.0000 0.4795
   outer loop
     vertex -0.8433 -0.1280 0.4012
     vertex -0.7619 -0.0000 0.5501
     vertex -0.8433 0.1280 0.4012
   endloop
 endfacet
 facet normal -0.9307 -0.3465 0.1177
   outer loop
     vertex -0.8914 -0.2096 0.2109
     vertex -0.9072 -0.2388 0.0000
     vertex -0.8098 -0.5005 0.0000
   endloop
 endfacet
 facet normal -0.9188 -0.3656 0.1487
   outer loop
     vertex -0.8098 -0.5005 0.0000
     vertex -0.8078 -0.3998 0.2604
     vertex -0.8914 -0.2096 0.2109
   endloop
 endfacet
 facet normal -0.9899 -0.1218 0.0727
   outer loop
     vertex -0.9224 -0.0000 0.1941
     vertex -0.9366 -0.0000 0.0000
     vertex -0.9072 -0.2388 0.0000
   endloop
 endfacet
 facet normal -0.9861 -0.1380 0.0929
   outer loop
     vertex -0.9072 -0.2388 0.0000
     vertex -0.8914 -0.2096 0.2109
     vertex -0.9224 -0.0000 0.1941
   endloop
 endfacet
 facet normal -0.9476 -0.0889 0.3070
   outer loop
     vertex -0.8433 -0.1280 0.4012
     vertex -0.8768 -0.0000 0.3349
     vertex -0.9224 -0.0000 0.1941
   endloop
 endfacet
 facet normal -0.9497 -0.1168 0.2906
   outer loop
     vertex -0.9224 -0.0000 0.1941
     vertex -0.8914 -0.2096 0.2109
     vertex -0.8433 -0.1280 0.4012
   endloop
 endfacet
 facet normal -0.9188 0.3656 0.1487
   outer loop
     vertex -0.8914 0.2096 0.2109
     vertex -0.8078 0.3998 0.2604
     vertex -0.8098 0.5005 0.0000
   endloop
 endfacet
 facet normal -0.9307 0.3465 0.1177
   outer loop
     vertex -0.8098 0.5005 0.0000
     vertex -0.9072 0.2388 0.0000
     vertex -0.8914 0.2096 0.2109
   endloop
 endfacet
 facet normal -0.8748 0.3080 0.3740
   outer loop
     vertex -0.8433 0.1280 0.4012
     vertex -0.7577 0.2894 0.4683
     vertex -0.8078 0.3998 0.2604
   endloop
 endfacet
 facet normal -0.8869 0.2985 0.3526
   outer loop
     vertex -0.8078 0.3998 0.2604
     vertex -0.8914 0.2096 0.2109
     vertex -0.8433 0.1280 0.4012
   endloop
 endfacet
 facet normal -0.9476 0.0889 0.3070
   outer loop
     vertex -0.9224 -0.0000 0.1941
     vertex -0.8768 -0.0000 0.3349
     vertex -0.8433 0.1280 0.4012
   endloop
 endfacet
 facet normal -0.9497 0.1168 0.2906
   outer loop
     vertex -0.8433 0.1280 0.4012
     vertex -0.8914 0.2096 0.2109
     vertex -0.9224 -0.0000 0.1941
   endloop
 endfacet
 facet normal 0.7093 0.7047 0.0192
   outer loop
     vertex 0.5501 0.7619 0.0000
     vertex 0.6468 0.6602 0.1609
     vertex 0.8098 0.5005 0.0000
   endloop
 endfacet
 facet normal 0.7093 0.7047 -0.0192
   outer loop
     vertex 0.8098 0.5005 0.0000
     vertex 0.6468 0.6602 -0.1609
     vertex 0.5501 0.7619 0.0000
   endloop
 endfacet
 facet normal 0.5710 0.7995 0.1862
   outer loop
     vertex 0.4012 0.8433 0.1280
     vertex 0.4683 0.7577 0.2894
     vertex 0.6468 0.6602 0.1609
   endloop
 endfacet
 facet normal 0.5760 0.8016 0.1605
   outer loop
     vertex 0.6468 0.6602 0.1609
     vertex 0.5501 0.7619 0.0000
     vertex 0.4012 0.8433 0.1280
   endloop
 endfacet
 facet normal 0.4508 0.8926 0.0000
   outer loop
     vertex 0.4012 0.8433 -0.1280
     vertex 0.3349 0.8768 0.0000
     vertex 0.4012 0.8433 0.1280
   endloop
 endfacet
 facet normal 0.4795 0.8775 0.0000
   outer loop
     vertex 0.4012 0.8433 0.1280
     vertex 0.5501 0.7619 0.0000
     vertex 0.4012 0.8433 -0.1280
   endloop
 endfacet
 facet normal 0.1177 0.9307 0.3465
   outer loop
     vertex 0.2109 0.8914 0.2096
     vertex 0.0000 0.9072 0.2388
     vertex 0.0000 0.8098 0.5005
   endloop
 endfacet
 facet normal 0.1487 0.9188 0.3656
   outer loop
     vertex 0.0000 0.8098 0.5005
     vertex 0.2604 0.8078 0.3998
     vertex 0.2109 0.8914 0.2096
   endloop
 endfacet
 facet normal 0.0727 0.9899 0.1218
   outer loop
     vertex 0.1941 0.9224 0.0000
     vertex 0.0000 0.9366 0.0000
     vertex 0.0000 0.9072 0.2388
   endloop
 endfacet
 facet normal 0.0929 0.9861 0.1380
   outer loop
     vertex 0.0000 0.9072 0.2388
     vertex 0.2109 0.8914 0.2096
     vertex 0.1941 0.9224 0.0000
   endloop
 endfacet
 facet normal 0.3070 0.9476 0.0889
   outer loop
     vertex 0.4012 0.8433 0.1280
     vertex 0.3349 0.8768 0.0000
     vertex 0.1941 0.9224 0.0000
   endloop
 endfacet
 facet normal 0.2906 0.9497 0.1168
   outer loop
     vertex 0.1941 0.9224 0.0000
     vertex 0.2109 0.8914 0.2096
     vertex 0.4012 0.8433 0.1280
   endloop
 endfacet
 facet normal 0.1487 0.9188 -0.3656
   outer loop
     vertex 0.2109 0.8914 -0.2096
     vertex 0.2604 0.8078 -0.3998
     vertex 0.0000 0.8098 -0.5005
   endloop
 endfacet
 facet normal 0.1177 0.9307 -0.3465
   outer loop
     vertex 0.0000 0.8098 -0.5005
     vertex -0.0000 0.9072 -0.2388
     vertex 0.2109 0.8914 -0.2096
   endloop
 endfacet
 facet normal 0.3740 0.8748 -0.3080
   outer loop
     vertex 0.4012 0.8433 -0.1280
     vertex 0.4683 0.7577 -0.2894
     vertex 0.2604 0.8078 -0.3998
   endloop
 endfacet
 facet normal 0.3526 0.8869 -0.2985
   outer loop
     vertex 0.2604 0.8078 -0.3998
     vertex 0.2109 0.8914 -0.2096
     vertex 0.4012 0.8433 -0.1280
   endloop
 endfacet
 facet normal 0.3070 0.9476 -0.0889
   outer loop
     vertex 0.1941 0.9224 0.0000
     vertex 0.3349 0.8768 0.0000
     vertex 0.4012 0.8433 -0.1280
   endloop
 endfacet
 facet normal 0.2906 0.9497 -0.1168
   outer loop
     vertex 0.4012 0.8433 -0.1280
     vertex 0.2109 0.8914 -0.2096
     vertex 0.1941 0.9224 0.0000
   endloop
 endfacet
 facet normal -0.7093 0.7047 -0.0192
   outer loop
     vertex -0.5501 0.7619 0.0000
     vertex -0.6468 0.6602 -0.1609
     vertex -0.8098 0.5005 0.0000
   endloop
 endfacet
 facet normal -0.7093 0.7047 0.0192
   outer loop
     vertex -0.8098 0.5005 0.0000
     vertex -0.6468 0.6602 0.1609
     vertex -0.5501 0.7619 0.0000
   endloop
 endfacet
 facet normal -0.5710 0.7995 -0.1862
   outer loop
     vertex -0.4012 0.8433 -0.1280
     vertex -0.4683 0.7577 -0.2894
     vertex -0.6468 0.6602 -0.1609
   endloop
 endfacet
 facet normal -0.5760 0.8016 -0.1605
   outer loop
     vertex -0.6468 0.6602 -0.1609
     vertex -0.5501 0.7619 0.0000
     vertex -0.4012 0.8433 -0.1280
   endloop
 endfacet
 facet normal -0.4508 0.8926 -0.0000
   outer loop
     vertex -0.4012 0.8433 0.1280
     vertex -0.3349 0.8768 0.0000
     vertex -0.4012 0.8433 -0.1280
   endloop
 endfacet
 facet normal -0.4795 0.8775 -0.0000
   outer loop
     vertex -0.4012 0.8433 -0.1280
     vertex -0.5501 0.7619 0.0000
     vertex -0.4012 0.8433 0.1280
   endloop
 endfacet
 facet normal -0.1177 0.9307 -0.3465
   outer loop
     vertex -0.2109 0.8914 -0.2096
     vertex -0.0000 0.9072 -0.2388
     vertex 0.0000 0.8098 -0.5005
   endloop
 endfacet
 facet normal -0.1487 0.9188 -0.3656
   outer loop
     vertex 0.0000 0.8098 -0.5005
     vertex -0.2604 0.8078 -0.3998
     vertex -0.2109 0.8914 -0.2096
   endloop
 endfacet
 facet normal -0.0727 0.9899 -0.1218
   outer loop
     vertex -0.1941 0.9224 0.0000
     vertex 0.0000 0.9366 0.0000
     vertex -0.0000 0.9072 -0.2388
   endloop
 endfacet
 facet normal -0.0929 0.9861 -0.1380
   outer loop
     vertex -0.0000 0.9072 -0.2388
     vertex -0.2109 0.8914 -0.2096
     vertex -0.1941 0.9224 0.0000
   endloop
 endfacet
 facet normal -0.3070 0.9476 -0.0889
   outer loop
     vertex -0.4012 0.8433 -0.1280
     vertex -0.3349 0.8768 0.0000
     vertex -0.1941 0.9224 0.0000
   endloop
 endfacet
 facet normal -0.2906 0.9497 -0.1168
   outer loop
     vertex -0.1941 0.9224 0.0000
     vertex -0.2109 0.8914 -0.2096
     vertex -0.4012 0.8433 -0.1280
   endloop
 endfacet
 facet normal -0.1487 0.9188 0.3656
   outer loop
     vertex -0.2109 0.8914 0.2096
     vertex -0.2604 0.8078 0.3998
     vertex 0.0000 0.8098 0.5005
   endloop
 endfacet
 facet normal -0.1177 0.9307 0.3465
   outer loop
     vertex 0.0000 0.8098 0.5005
     vertex 0.0000 0.9072 0.2388
     vertex -0.2109 0.8914 0.2096
   endloop
 endfacet
 facet normal -0.3740 0.8748 0.3080
   outer loop
     vertex -0.4012 0.8433 0.1280
     vertex -0.4683 0.7577 0.2894
     vertex -0.2604 0.8078 0.3998
   endloop
 endfacet
 facet normal -0.3526 0.8869 0.2985
   outer loop
     vertex -0.2604 0.8078 0.3998
     vertex -0.2109 0.8914 0.2096
     vertex -0.4012 0.8433 0.1280
   endloop
 endfacet
 facet normal -0.3070 0.9476 0.0889
   outer loop
     vertex -0.1941 0.9224 0.0000
     vertex -0.3349 0.8768 0.0000
     vertex -0.4012 0.8433 0.1280
   endloop
 endfacet
 facet normal -0.2906 0.9497 0.1168
   outer loop
     vertex -0.4012 0.8433 0.1280
     vertex -0.2109 0.8914 0.2096
     vertex -0.1941 0.9224 0.0000
   endloop
 endfacet
 facet normal -0.7093 -0.7047 0.0192
   outer loop
     vertex -0.5501 -0.7619 0.0000
     vertex -0.6468 -0.6602 0.1609
     vertex -0.8098 -0.5005 0.0000
   endloop
 endfacet
 facet normal -0.7093 -0.7047 -0.0192
   outer loop
     vertex -0.8098 -0.5005 0.0000
     vertex -0.6468 -0.6602 -0.1609
     vertex -0.5501 -0.7619 0.0000
   endloop
 endfacet
 facet normal -0.5710 -0.7995 0.1862
   outer loop
     vertex -0.4012 -0.8433 0.1280
     vertex -0.4683 -0.7577 0.2894
     vertex -0.6468 -0.6602 0.1609
   endloop
 endfacet
 facet normal -0.5760 -0.8016 0.1605
   outer loop
     vertex -0.6468 -0.6602 0.1609
     vertex -0.5501 -0.7619 0.0000
     vertex -0.4012 -0.8433 0.1280
   endloop
 endfacet
 facet normal -0.4508 -0.8926 0.0000
   outer loop
     vertex -0.4012 -0.8433 -0.1280
     vertex -0.3349 -0.8768 0.0000
     vertex -0.4012 -0.8433 0.1280
   endloop
 endfacet
 facet normal -0.4795 -0.8775 0.0000
   outer loop
     vertex -0.4012 -0.8433 0.1280
     vertex -0.5501 -0.7619 0.0000
     vertex -0.4012 -0.8433 -0.1280
   endloop
 endfacet
 facet normal -0.1177 -0.9307 0.3465
   outer loop
     vertex -0.2109 -0.8914 0.2096
     vertex 0.0000 -0.9072 0.2388
     vertex 0.0000 -0.8098 0.5005
   endloop
 endfacet
 facet normal -0.1487 -0.9188 0.3656
   outer loop
     vertex 0.0000 -0.8098 0.5005
     vertex -0.2604 -0.8078 0.3998
     vertex -0.2109 -0.8914 0.2096
   endloop
 endfacet
 facet normal -0.0727 -0.9899 0.1218
   outer loop
     vertex -0.1941 -0.9224 0.0000
     vertex 0.0000 -0.9366 0.0000
     vertex 0.0000 -0.9072 0.2388
   endloop
 endfacet
 facet normal -0.0929 -0.9861 0.1380
   outer loop
     vertex 0.0000 -0.9072 0.2388
     vertex -0.2109 -0.8914 0.2096
     vertex -0.1941 -0.9224 0.0000
   endloop
 endfacet
 facet normal -0.3070 -0.9476 0.0889
   outer loop
     vertex -0.4012 -0.8433 0.1280
     vertex -0.3349 -0.8768 0.0000
     vertex -0.1941 -0.9224 0.0000
   endloop
 endfacet
 facet normal -0.2906 -0.9497 0.1168
   outer loop
     vertex -0.1941 -0.9224 0.0000
     vertex -0.2109 -0.8914 0.2096
     vertex -0.4012 -0.8433 0.1280
   endloop
 endfacet
 facet normal -0.1487 -0.9188 -0.3656
   outer loop
     vertex -0.2109 -0.8914 -0.2096
     vertex -0.2604 -0.8078 -0.3998
     vertex 0.0000 -0.8098 -0.5005
   endloop
 endfacet
 facet normal -0.1177 -0.9307 -0.3465
   outer loop
     vertex 0.0000 -0.8098 -0.5005
     vertex 0.0000 -0.9072 -0.2388
     vertex -0.2109 -0.8914 -0.2096
   endloop
 endfacet
 facet normal -0.3740 -0.8748 -0.3080
   outer loop
     vertex -0.4012 -0.8433 -0.1280
     vertex -0.4683 -0.7577 -0.2894
     vertex -0.2604 -0.8078 -0.3998
   endloop
 endfacet
 facet normal -0.3526 -0.8869 -0.2985
   outer loop
     vertex -0.2604 -0.8078 -0.3998
     vertex -0.2109 -0.8914 -0.2096
     vertex -0.4012 -0.8433 -0.1280
   endloop
 endfacet
 facet normal -0.3070 -0.9476 -0.0889
   outer loop
     vertex -0.1941 -0.9224 0.0000
     vertex -0.3349 -0.8768 0.0000
     vertex -0.4012 -0.8433 -0.1280
   endloop
 endfacet
 facet normal -0.2906 -0.9497 -0.1168
   outer loop
     vertex -0.4012 -0.8433 -0.1280
     vertex -0.2109 -0.8914 -0.2096
     vertex -0.1941 -0.9224 0.0000
   endloop
 endfacet
 facet normal 0.7093 -0.7047 -0.0192
   outer loop
     vertex 0.5501 -0.7619 0.0000
     vertex 0.6468 -0.6602 -0.1609
     vertex 0.8098 -0.5005 0.0000
   endloop
 endfacet
 facet normal 0.7093 -0.7047 0.0192
   outer loop
     vertex 0.8098 -0.5005 0.0000
     vertex 0.6468 -0.6602 0.1609
     vertex 0.5501 -0.7619 0.0000
   endloop
 endfacet
 facet normal 0.5710 -0.7995 -0.1862
   outer loop
     vertex 0.4012 -0.8433 -0.1280
     vertex 0.4683 -0.7577 -0.2894
     vertex 0.6468 -0.6602 -0.1609
   endloop
 endfacet
 facet normal 0.5760 -0.8016 -0.1605
   outer loop
     vertex 0.6468 -0.6602 -0.1609
     vertex 0.5501 -0.7619 0.0000
     vertex 0.4012 -0.8433 -0.1280
   endloop
 endfacet
 facet normal 0.4508 -0.8926 -0.0000
   outer loop
     vertex 0.4012 -0.8433 0.1280
     vertex 0.3349 -0.8768 0.0000
     vertex 0.4012 -0.8433 -0.1280
   endloop
 endfacet
 facet normal 0.4795 -0.8775 -0.0000
   outer loop
     vertex 0.4012 -0.8433 -0.1280
     vertex 0.5501 -0.7619 0.0000
     vertex 0.4012 -0.8433 0.1280
   endloop
 endfacet
 facet normal 0.1177 -0.9307 -0.3465
   outer loop
     vertex 0.2109 -0.8914 -0.2096
     vertex 0.0000 -0.9072 -0.2388
     vertex 0.0000 -0.8098 -0.5005
   endloop
 endfacet
 facet normal 0.1487 -0.9188 -0.3656
   outer loop
     vertex 0.0000 -0.8098 -0.5005
     vertex 0.2604 -0.8078 -0.3998
     vertex 0.2109 -0.8914 -0.2096
   endloop
 endfacet
 facet normal 0.0727 -0.9899 -0.1218
   outer loop
     vertex 0.1941 -0.9224 0.0000
     vertex 0.0000 -0.9366 0.0000
     vertex 0.0000 -0.9072 -0.2388
   endloop
 endfacet
 facet normal 0.0929 -0.9861 -0.1380
   outer loop
     vertex 0.0000 -0.9072 -0.2388
     vertex 0.2109 -0.8914 -0.2096
     vertex 0.1941 -0.9224 0.0000
   endloop
 endfacet
 facet normal 0.3070 -0.9476 -0.0889
   outer loop
     vertex 0.4012 -0.8433 -0.1280
     vertex 0.3349 -0.8768 0.0000
     vertex 0.1941 -0.9224 0.0000
   endloop
 endfacet
 facet normal 0.2906 -0.9497 -0.1168
   outer loop
     vertex 0.1941 -0.9224 0.0000
     vertex 0.2109 -0.8914 -0.2096
     vertex 0.4012 -0.8433 -0.1280
   endloop
 endfacet
 facet normal 0.1487 -0.9188 0.3656
   outer loop
     vertex 0.2109 -0.8914 0.2096
     vertex 0.2604 -0.8078 0.3998
     vertex 0.0000 -0.8098 0.5005
   endloop
 endfacet
 facet normal 0.1177 -0.9307 0.3465
   outer loop
     vertex 0.0000 -0.8098 0.5005
     vertex 0.0000 -0.9072 0.2388
     vertex 0.2109 -0.8914 0.2096
   endloop
 endfacet
 facet normal 0.3740 -0.8748 0.3080
   outer loop
     vertex 0.4012 -0.8433 0.1280
     vertex 0.4683 -0.7577 0.2894
     vertex 0.2604 -0.8078 0.3998
   endloop
 endfacet
 facet normal 0.3526 -0.8869 0.2985
   outer loop
     vertex 0.2604 -0.8078 0.3998
     vertex 0.2109 -0.8914 0.2096
     vertex 0.4012 -0.8433 0.1280
   endloop
 endfacet
 facet normal 0.3070 -0.9476 0.0889
   outer loop
     vertex 0.1941 -0.9224 0.0000
     vertex 0.3349 -0.8768 0.0000
     vertex 0.4012 -0.8433 0.1280
   endloop
 endfacet
 facet normal 0.2906 -0.9497 0.1168
   outer loop
     vertex 0.4012 -0.8433 0.1280
     vertex 0.2109 -0.8914 0.2096
     vertex 0.1941 -0.9224 0.0000
   endloop
 endfacet
 facet normal 0.0192 0.7093 0.7047
   outer loop
     vertex 0.0000 0.5501 0.7619
     vertex 0.1609 0.6468 0.6602
     vertex 0.0000 0.8098 0.5005
   endloop
 endfacet
 facet normal -0.0192 0.7093 0.7047
   outer loop
     vertex 0.0000 0.8098 0.5005
     vertex -0.1609 0.6468 0.6602
     vertex 0.0000 0.5501 0.7619
   endloop
 endfacet
 facet normal 0.1862 0.5710 0.7995
   outer loop
     vertex 0.1280 0.4012 0.8433
     vertex 0.2894 0.4683 0.7577
     vertex 0.1609 0.6468 0.6602
   endloop
 endfacet
 facet normal 0.1605 0.5760 0.8016
   outer loop
     vertex 0.1609 0.6468 0.6602
     vertex 0.0000 0.5501 0.7619
     vertex 0.1280 0.4012 0.8433
   endloop
 endfacet
 facet normal 0.0000 0.4508 0.8926
   outer loop
     vertex -0.1280 0.4012 0.8433
     vertex 0.0000 0.3349 0.8768
     vertex 0.1280 0.4012 0.8433
   endloop
 endfacet
 facet normal 0.0000 0.4795 0.8775
   outer loop
     vertex 0.1280 0.4012 0.8433
     vertex 0.0000 0.5501 0.7619
     vertex -0.1280 0.4012 0.8433
   endloop
 endfacet
 facet normal 0.3465 0.1177 0.9307
   outer loop
     vertex 0.2096 0.2109 0.8914
     vertex 0.2388 -0.0000 0.9072
     vertex 0.5005 -0.0000 0.8098
   endloop
 endfacet
 facet normal 0.3656 0.1487 0.9188
   outer loop
     vertex 0.5005 -0.0000 0.8098
     vertex 0.3998 0.2604 0.8078
     vertex 0.2096 0.2109 0.8914
   endloop
 endfacet
 facet normal 0.1218 0.0727 0.9899
   outer loop
     vertex 0.0000 0.1941 0.9224
     vertex 0.0000 -0.0000 0.9366
     vertex 0.2388 -0.0000 0.9072
   endloop
 endfacet
 facet normal 0.1380 0.0929 0.9861
   outer loop
     vertex 0.2388 -0.0000 0.9072
     vertex 0.2096 0.2109 0.8914
     vertex 0.0000 0.1941 0.9224
   endloop
 endfacet
 facet normal 0.0889 0.3070 0.9476
   outer loop
     vertex 0.1280 0.4012 0.8433
     vertex 0.0000 0.3349 0.8768
     vertex 0.0000 0.1941 0.9224
   endloop
 endfacet
 facet normal 0.1168 0.2906 0.9497
   outer loop
     vertex 0.0000 0.1941 0.9224
     vertex 0.2096 0.2109 0.8914
     vertex 0.1280 0.4012 0.8433
   endloop
 endfacet
 facet normal -0.3656 0.1487 0.9188
   outer loop
     vertex -0.2096 0.2109 0.8914
     vertex -0.3998 0.2604 0.8078
     vertex -0.5005 -0.0000 0.8098
   endloop
 endfacet
 facet normal -0.3465 0.1177 0.9307
   outer loop
     vertex -0.5005 -0.0000 0.8098
     vertex -0.2388 -0.0000 0.9072
     vertex -0.2096 0.2109 0.8914
   endloop
 endfacet
 facet normal -0.3080 0.3740 0.8748
   outer loop
     vertex -0.1280 0.4012 0.8433
     vertex -0.2894 0.4683 0.7577
     vertex -0.3998 0.2604 0.8078
   endloop
 endfacet
 facet normal -0.2985 0.3526 0.8869
   outer loop
     vertex -0.3998 0.2604 0.8078
     vertex -0.2096 0.2109 0.8914
     vertex -0.1280 0.4012 0.8433
   endloop
 endfacet
 facet normal -0.0889 0.3070 0.9476
   outer loop
     vertex 0.0000 0.1941 0.9224
     vertex 0.0000 0.3349 0.8768
     vertex -0.1280 0.4012 0.8433
   endloop
 endfacet
 facet normal -0.1168 0.2906 0.9497
   outer loop
     vertex -0.1280 0.4012 0.8433
     vertex -0.2096 0.2109 0.8914
     vertex 0.0000 0.1941 0.9224
   endloop
 endfacet
 facet normal -0.0192 -0.7093 0.7047
   outer loop
     vertex 0.0000 -0.5501 0.7619
     vertex -0.1609 -0.6468 0.6602
     vertex 0.0000 -0.8098 0.5005
   endloop
 endfacet
 facet normal 0.0192 -0.7093 0.7047
   outer loop
     vertex 0.0000 -0.8098 0.5005
     vertex 0.1609 -0.6468 0.6602
     vertex 0.0000 -0.5501 0.7619
   endloop
 endfacet
 facet normal -0.1862 -0.5710 0.7995
   outer loop
     vertex -0.1280 -0.4012 0.8433
     vertex -0.2894 -0.4683 0.7577
     vertex -0.1609 -0.6468 0.6602
   endloop
 endfacet
 facet normal -0.1605 -0.5760 0.8016
   outer loop
     vertex -0.1609 -0.6468 0.6602
     vertex 0.0000 -0.5501 0.7619
     vertex -0.1280 -0.4012 0.8433
   endloop
 endfacet
 facet normal -0.0000 -0.4508 0.8926
   outer loop
     vertex 0.1280 -0.4012 0.8433
     vertex 0.0000 -0.3349 0.8768
     vertex -0.1280 -0.4012 0.8433
   endloop
 endfacet
 facet normal -0.0000 -0.4795 0.8775
   outer loop
     vertex -0.1280 -0.4012 0.8433
     vertex 0.0000 -0.5501 0.7619
     vertex 0.1280 -0.4012 0.8433
   endloop
 endfacet
 facet normal -0.3465 -0.1177 0.9307
   outer loop
     vertex -0.2096 -0.2109 0.8914
     vertex -0.2388 -0.0000 0.9072
     vertex -0.5005 -0.0000 0.8098
   endloop
 endfacet
 facet normal -0.3656 -0.1487 0.9188
   outer loop
     vertex -0.5005 -0.0000 0.8098
     vertex -0.3998 -0.2604 0.8078
     vertex -0.2096 -0.2109 0.8914
   endloop
 endfacet
 facet normal -0.1218 -0.0727 0.9899
   outer loop
     vertex 0.0000 -0.1941 0.9224
     vertex 0.0000 -0.0000 0.9366
     vertex -0.2388 -0.0000 0.9072
   endloop
 endfacet
 facet normal -0.1380 -0.0929 0.9861
   outer loop
     vertex -0.2388 -0.0000 0.9072
     vertex -0.2096 -0.2109 0.8914
     vertex 0.0000 -0.1941 0.9224
   endloop
 endfacet
 facet normal -0.0889 -0.3070 0.9476
   outer loop
     vertex -0.1280 -0.4012 0.8433
     vertex 0.0000 -0.3349 0.8768
     vertex 0.0000 -0.1941 0.9224
   endloop
 endfacet
 facet normal -0.1168 -0.2906 0.9497
   outer loop
     vertex 0.0000 -0.1941 0.9224
     vertex -0.2096 -0.2109 0.8914
     vertex -0.1280 -0.4012 0.8433
   endloop
 endfacet
 facet normal 0.3656 -0.1487 0.9188
   outer loop
     vertex 0.2096 -0.2109 0.8914
     vertex 0.3998 -0.2604 0.8078
     vertex 0.5005 -0.0000 0.8098
   endloop
 endfacet
 facet normal 0.3465 -0.1177 0.9307
   outer loop
     vertex 0.5005 -0.0000 0.8098
     vertex 0.2388 -0.0000 0.9072
     vertex 0.2096 -0.2109 0.8914
   endloop
 endfacet
 facet normal 0.3080 -0.3740 0.8748
   outer loop
     vertex 0.1280 -0.4012 0.8433
     vertex 0.2894 -0.4683 0.7577
     vertex 0.3998 -0.2604 0.8078
   endloop
 endfacet
 facet normal 0.2985 -0.3526 0.8869
   outer loop
     vertex 0.3998 -0.2604 0.8078
     vertex 0.2096 -0.2109 0.8914
     vertex 0.1280 -0.4012 0.8433
   endloop
 endfacet
 facet normal 0.0889 -0.3070 0.9476
   outer loop
     vertex 0.0000 -0.1941 0.9224
     vertex 0.0000 -0.3349 0.8768
     vertex 0.1280 -0.4012 0.8433
   endloop
 endfacet
 facet normal 0.1168 -0.2906 0.9497
   outer loop
     vertex 0.1280 -0.4012 0.8433
     vertex 0.2096 -0.2109 0.8914
     vertex 0.0000 -0.1941 0.9224
   endloop
 endfacet
 facet normal 0.0192 -0.7093 -0.7047
   outer loop
     vertex 0.0000 -0.5501 -0.7619
     vertex 0.1609 -0.6468 -0.6602
     vertex 0.0000 -0.8098 -0.5005
   endloop
 endfacet
 facet normal -0.0192 -0.7093 -0.7047
   outer loop
     vertex 0.0000 -0.8098 -0.5005
     vertex -0.1609 -0.6468 -0.6602
     vertex 0.0000 -0.5501 -0.7619
   endloop
 endfacet
 facet normal 0.1862 -0.5710 -0.7995
   outer loop
     vertex 0.1280 -0.4012 -0.8433
     vertex 0.2894 -0.4683 -0.7577
     vertex 0.1609 -0.6468 -0.6602
   endloop
 endfacet
 facet normal 0.1605 -0.5760 -0.8016
   outer loop
     vertex 0.1609 -0.6468 -0.6602
     vertex 0.0000 -0.5501 -0.7619
     vertex 0.1280 -0.4012 -0.8433
   endloop
 endfacet
 facet normal 0.0000 -0.4508 -0.8926
   outer loop
     vertex -0.1280 -0.4012 -0.8433
     vertex 0.0000 -0.3349 -0.8768
     vertex 0.1280 -0.4012 -0.8433
   endloop
 endfacet
 facet normal 0.0000 -0.4795 -0.8775
   outer loop
     vertex 0.1280 -0.4012 -0.8433
     vertex 0.0000 -0.5501 -0.7619
     vertex -0.1280 -0.4012 -0.8433
   endloop
 endfacet
 facet normal 0.3465 -0.1177 -0.9307
   outer loop
     vertex 0.2096 -0.2109 -0.8914
     vertex 0.2388 -0.0000 -0.9072
     vertex 0.5005 -0.0000 -0.8098
   endloop
 endfacet
 facet normal 0.3656 -0.1487 -0.9188
   outer loop
     vertex 0.5005 -0.0000 -0.8098
     vertex 0.3998 -0.2604 -0.8078
     vertex 0.2096 -0.2109 -0.8914
   endloop
 endfacet
 facet normal 0.1218 -0.0727 -0.9899
   outer loop
     vertex 0.0000 -0.1941 -0.9224
     vertex 0.0000 -0.0000 -0.9366
     vertex 0.2388 -0.0000 -0.9072
   endloop
 endfacet
 facet normal 0.1380 -0.0929 -0.9861
   outer loop
     vertex 0.2388 -0.0000 -0.9072
     vertex 0.2096 -0.2109 -0.8914
     vertex 0.0000 -0.1941 -0.9224
   endloop
 endfacet
 facet normal 0.0889 -0.3070 -0.9476
   outer loop
     vertex 0.1280 -0.4012 -0.8433
     vertex 0.0000 -0.3349 -0.8768
     vertex 0.0000 -0.1941 -0.9224
   endloop
 endfacet
 facet normal 0.1168 -0.2906 -0.9497
   outer loop
     vertex 0.0000 -0.1941 -0.9224
     vertex 0.2096 -0.2109 -0.8914
     vertex 0.1280 -0.4012 -0.8433
   endloop
 endfacet
 facet normal -0.3656 -0.1487 -0.9188
   outer loop
     vertex -0.2096 -0.2109 -0.8914
     vertex -0.3998 -0.2604 -0.8078
     vertex -0.5005 -0.0000 -0.8098
   endloop
 endfacet
 facet normal -0.3465 -0.1177 -0.9307
   outer loop
     vertex -0.5005 -0.0000 -0.8098
     vertex -0.2388 0.0000 -0.9072
     vertex -0.2096 -0.2109 -0.8914
   endloop
 endfacet
 facet normal -0.3080 -0.3740 -0.8748
   outer loop
     vertex -0.1280 -0.4012 -0.8433
     vertex -0.2894 -0.4683 -0.7577
     vertex -0.3998 -0.2604 -0.8078
   endloop
 endfacet
 facet normal -0.2985 -0.3526 -0.8869
   outer loop
     vertex -0.3998 -0.2604 -0.8078
     vertex -0.2096 -0.2109 -0.8914
     vertex -0.1280 -0.4012 -0.8433
   endloop
 endfacet
 facet normal -0.0889 -0.3070 -0.9476
   outer loop
     vertex 0.0000 -0.1941 -0.9224
     vertex 0.0000 -0.3349 -0.8768
     vertex -0.1280 -0.4012 -0.8433
   endloop
 endfacet
 facet normal -0.1168 -0.2906 -0.9497
   outer loop
     vertex -0.1280 -0.4012 -0.8433
     vertex -0.2096 -0.2109 -0.8914
     vertex 0.0000 -0.1941 -0.9224
   endloop
 endfacet
 facet normal -0.0192 0.7093 -0.7047
   outer loop
     vertex 0.0000 0.5501 -0.7619
     vertex -0.1609 0.6468 -0.6602
     vertex 0.0000 0.8098 -0.5005
   endloop
 endfacet
 facet normal 0.0192 0.7093 -0.7047
   outer loop
     vertex 0.0000 0.8098 -0.5005
     vertex 0.1609 0.6468 -0.6602
     vertex 0.0000 0.5501 -0.7619
   endloop
 endfacet
 facet normal -0.1862 0.5710 -0.7995
   outer loop
     vertex -0.1280 0.4012 -0.8433
     vertex -0.2894 0.4683 -0.7577
     vertex -0.1609 0.6468 -0.6602
   endloop
 endfacet
 facet normal -0.1605 0.5760 -0.8016
   outer loop
     vertex -0.1609 0.6468 -0.6602
     vertex 0.0000 0.5501 -0.7619
     vertex -0.1280 0.4012 -0.8433
   endloop
 endfacet
 facet normal -0.0000 0.4508 -0.8926
   outer loop
     vertex 0.1280 0.4012 -0.8433
     vertex 0.0000 0.3349 -0.8768
     vertex -0.1280 0.4012 -0.8433
   endloop
 endfacet
 facet normal -0.0000 0.4795 -0.8775
   outer loop
     vertex -0.1280 0.4012 -0.8433
     vertex 0.0000 0.5501 -0.7619
     vertex 0.1280 0.4012 -0.8433
   endloop
 endfacet
 facet normal -0.3465 0.1177 -0.9307
   outer loop
     vertex -0.2096 0.2109 -0.8914
     vertex -0.2388 0.0000 -0.9072
     vertex -0.5005 -0.0000 -0.8098
   endloop
 endfacet
 facet normal -0.3656 0.1487 -0.9188
   outer loop
     vertex -0.5005 -0.0000 -0.8098
     vertex -0.3998 0.2604 -0.8078
     vertex -0.2096 0.2109 -0.8914
   endloop
 endfacet
 facet normal -0.1218 0.0727 -0.9899
   outer loop
     vertex 0.0000 0.1941 -0.9224
     vertex 0.0000 -0.0000 -0.9366
     vertex -0.2388 0.0000 -0.9072
   endloop
 endfacet
 facet normal -0.1380 0.0929 -0.9861
   outer loop
     vertex -0.2388 0.0000 -0.9072
     vertex -0.2096 0.2109 -0.8914
     vertex 0.0000 0.1941 -0.9224
   endloop
 endfacet
 facet normal -0.0889 0.3070 -0.9476
   outer loop
     vertex -0.1280 0.4012 -0.8433
     vertex 0.0000 0.3349 -0.8768
     vertex 0.0000 0.1941 -0.9224
   endloop
 endfacet
 facet normal -0.1168 0.2906 -0.9497
   outer loop
     vertex 0.0000 0.1941 -0.9224
     vertex -0.2096 0.2109 -0.8914
     vertex -0.1280 0.4012 -0.8433
   endloop
 endfacet
 facet normal 0.3656 0.1487 -0.9188
   outer loop
     vertex 0.2096 0.2109 -0.8914
     vertex 0.3998 0.2604 -0.8078
     vertex 0.5005 -0.0000 -0.8098
   endloop
 endfacet
 facet normal 0.3465 0.1177 -0.9307
   outer loop
     vertex 0.5005 -0.0000 -0.8098
     vertex 0.2388 -0.0000 -0.9072
     vertex 0.2096 0.2109 -0.8914
   endloop
 endfacet
 facet normal 0.3080 0.3740 -0.8748
   outer loop
     vertex 0.1280 0.4012 -0.8433
     vertex 0.2894 0.4683 -0.7577
     vertex 0.3998 0.2604 -0.8078
   endloop
 endfacet
 facet normal 0.2985 0.3526 -0.8869
   outer loop
     vertex 0.3998 0.2604 -0.8078
     vertex 0.2096 0.2109 -0.8914
     vertex 0.1280 0.4012 -0.8433
   endloop
 endfacet
 facet normal 0.0889 0.3070 -0.9476
   outer loop
     vertex 0.0000 0.1941 -0.9224
     vertex 0.0000 0.3349 -0.8768
     vertex 0.1280 0.4012 -0.8433
   endloop
 endfacet
 facet normal 0.1168 0.2906 -0.9497
   outer loop
     vertex 0.1280 0.4012 -0.8433
     vertex 0.2096 0.2109 -0.8914
     vertex 0.0000 0.1941 -0.9224
   endloop
 endfacet
endsolid
